<?xml version="1.0" encoding="UTF-8"?>
<svg xmlns="http://www.w3.org/2000/svg" xmlns:xlink="http://www.w3.org/1999/xlink" viewBox="0 0 1920 1013.36">
  <defs>
    <style>
      .cls-1 {
        fill: #fff;
      }

      .cls-2 {
        fill: #76160e;
      }

      .cls-3 {
        fill: #415c74;
      }

      .cls-4 {
        fill: #73a5d1;
      }

      .cls-5 {
        fill: #d3702d;
      }

      .cls-6 {
        fill: #808ba1;
      }

      .cls-7 {
        fill: #ebebf2;
      }

      .cls-8 {
        fill: #2d1213;
      }

      .cls-9 {
        fill: #c1602a;
      }

      .cls-10 {
        fill: #4c6d88;
      }

      .cls-11 {
        fill: #eda02a;
      }

      .cls-12 {
        fill: #e4eef6;
      }

      .cls-13 {
        fill: #d0122c;
      }

      .cls-14 {
        fill: #648bb0;
      }

      .cls-15 {
        fill: #988e86;
      }

      .cls-16 {
        fill: url(#Dégradé_sans_nom_7);
      }

      .cls-17 {
        fill: #4e2b15;
      }

      .cls-18 {
        fill: #667284;
      }
    </style>
    <linearGradient id="Dégradé_sans_nom_7" data-name="Dégradé sans nom 7" x1="966.71" y1="981.03" x2="953.54" y2="49.22" gradientUnits="userSpaceOnUse">
      <stop offset="0" stop-color="#e4e4e4"/>
      <stop offset="1" stop-color="#c8e4f7"/>
    </linearGradient>
  </defs>
  <g id="Calque_2" data-name="Calque 2">
    <rect class="cls-16" width="1920" height="1012.78"/>
    <path class="cls-1" d="M162.53,129.44s2.47-60.92,61.79-38.07c-.16-2.13-2.05-33.82,19.84-48.72,11.89-8.1,25.99-7.96,32.4-7.89,5.67,.06,17.22,.17,27.22,6.06,15.62,9.19,23.44,30.12,21.87,52.93,17.86-9.68,37.98-5.3,48.54,7.24,5.25,6.23,7.77,16.06,4.84,31.31,27.48-3.58,48.74,9.05,51.71,23.85,2.04,10.14-4.57,21.01-11.4,27.29-13.39,12.32-32.51,11.45-39.07,11.2-33.62-1.28-117.1-.6-230.59,0-.94,.19-19.13,3.6-30.26-8.9-10.47-11.75-6.78-28.68-1.48-38.02,8.05-14.16,25.95-21.68,44.59-18.27Z"/>
    <path class="cls-1" d="M1022.74,108.37s2.47-60.92,61.79-38.07c-.16-2.13-2.05-33.82,19.84-48.72,11.89-8.1,25.99-7.96,32.4-7.89,5.67,.06,17.22,.17,27.22,6.06,15.62,9.19,23.44,30.12,21.87,52.93,17.86-9.68,37.98-5.3,48.54,7.24,5.25,6.23,7.77,16.06,4.84,31.31,27.48-3.58,48.74,9.05,51.71,23.85,2.04,10.14-4.57,21.01-11.4,27.29-13.39,12.32-32.51,11.45-39.07,11.2-33.62-1.28-117.1-.6-230.59,0-.94,.19-19.13,3.6-30.26-8.9-10.47-11.75-6.78-28.68-1.48-38.02,8.05-14.16,25.95-21.68,44.59-18.27Z"/>
    <path class="cls-1" d="M720.76,385.89s2.47-60.92,61.79-38.07c-.16-2.13-2.05-33.82,19.84-48.72,11.89-8.1,25.99-7.96,32.4-7.89,5.67,.06,17.22,.17,27.22,6.06,15.62,9.19,23.44,30.12,21.87,52.93,17.86-9.68,37.98-5.3,48.54,7.24,5.25,6.23,7.77,16.06,4.84,31.31,27.48-3.58,48.74,9.05,51.71,23.85,2.04,10.14-4.57,21.01-11.4,27.29-13.39,12.32-32.51,11.45-39.07,11.2-33.62-1.28-117.1-.6-230.59,0-.94,.19-19.13,3.6-30.26-8.9-10.47-11.75-6.78-28.68-1.48-38.02,8.05-14.16,25.95-21.68,44.59-18.27Z"/>
    <path class="cls-1" d="M1454.5,433.17s2.47-60.92,61.79-38.07c-.16-2.13-2.05-33.82,19.84-48.72,11.89-8.1,25.99-7.96,32.4-7.89,5.67,.06,17.22,.17,27.22,6.06,15.62,9.19,23.44,30.12,21.87,52.93,17.86-9.68,37.98-5.3,48.54,7.24,5.25,6.23,7.77,16.06,4.84,31.31,27.48-3.58,48.74,9.05,51.71,23.85,2.04,10.14-4.57,21.01-11.4,27.29-13.39,12.32-32.51,11.45-39.07,11.2-33.62-1.28-117.1-.6-230.59,0-.94,.19-19.13,3.6-30.26-8.9-10.47-11.75-6.78-28.68-1.48-38.02,8.05-14.16,25.95-21.68,44.59-18.27Z"/>
  </g>
  <g id="Calque_1" data-name="Calque 1">
    <g>
      <path class="cls-18" d="M276.61,1013.36s737.27-644.64,1392.68,0H276.61Z"/>
      <path class="cls-6" d="M318.68,1013.36s785.87-636.82,1305.78,0H318.68Z"/>
      <path class="cls-12" d="M819.89,872.19l78.3,11.81,116.71-151.15h-41.41s-158.28,121.97-153.6,139.34Z"/>
      <polygon class="cls-18" points="971.66 765.88 1222.22 765.88 1317.04 1013.36 868.35 1013.36 971.66 765.88"/>
      <polygon class="cls-12" points="702.35 1013.36 785.73 919.43 866.64 934.72 811.72 1013.36 702.35 1013.36"/>
      <g>
        <path class="cls-17" d="M965.47,762.09h-4.88c.03-7.68,.05-15.37,.08-23.05,90.49,.78,180.97,1.56,271.46,2.33-.02,7.73-.04,15.46-.06,23.19-2.55,.09-5.09,.17-7.64,.26v52.11h-42.07l1-42.73-178.31-3.65-.5,46.38h-41.07l2-54.84Z"/>
        <polygon class="cls-5" points="960.66 739.03 960.66 715.66 951.63 696.69 987.19 457.89 1206.08 457.89 1242.64 692.8 1233.12 709.34 1232.12 741.37 960.66 739.03"/>
        <g>
          <polygon class="cls-4" points="975.04 614.77 1005.98 471.99 1188.29 471.99 1216.84 614.77 975.04 614.77"/>
          <polygon class="cls-10" points="1005.98 471.99 1025.01 506.35 1166.26 506.35 1188.29 471.99 1005.98 471.99"/>
          <polygon class="cls-14" points="1025.01 506.35 1005.98 614.77 975.04 614.77 1005.98 471.99 1025.01 506.35"/>
          <polygon class="cls-14" points="1166.26 506.35 1188.29 613.18 1216.84 614.77 1188.29 471.99 1166.26 506.35"/>
          <polyline class="cls-3" points="1020.5 614.77 1034.51 560.03 1076.6 560.03 1083.11 614.77"/>
          <polyline class="cls-3" points="1170.01 614.77 1156.01 560.03 1113.91 560.03 1107.4 614.77"/>
          <rect class="cls-3" x="1060.57" y="514.69" width="63.61" height="10.94"/>
        </g>
        <path class="cls-9" d="M952.68,689.64c96.65,1.05,193.31,2.11,289.96,3.16l-9.52,16.54-1.01,32.03-271.46-2.33v-23.38c-1.37-3.14-2.62-5.65-3.5-7.36-3.38-6.54-5.3-8.79-5.49-12.78-.11-2.49,.49-4.55,1.01-5.88Z"/>
        <ellipse class="cls-8" cx="1097.15" cy="650.7" rx="48.33" ry="54.71"/>
        <ellipse class="cls-15" cx="1097.15" cy="650.7" rx="37.32" ry="43.77"/>
        <ellipse class="cls-8" cx="1097.15" cy="650.7" rx="15.44" ry="16.06"/>
        <ellipse class="cls-8" cx="1108.48" cy="625.35" rx="4.64" ry="9.07" transform="translate(-5.93 1240.07) rotate(-58.31)"/>
        <ellipse class="cls-8" cx="1122.74" cy="642.13" rx="4.55" ry="9.25" transform="translate(-170.29 611.29) rotate(-28.4)"/>
        <ellipse class="cls-8" cx="1085.93" cy="625.35" rx="9.07" ry="4.64" transform="translate(-166.6 663.68) rotate(-31.69)"/>
        <ellipse class="cls-8" cx="1120.11" cy="664.18" rx="9.21" ry="4.57" transform="translate(-59.92 1214.92) rotate(-55.69)"/>
        <ellipse class="cls-8" cx="1101.61" cy="677.73" rx="8.98" ry="4.69" transform="translate(-86.48 166.54) rotate(-8.32)"/>
        <ellipse class="cls-8" cx="1079.65" cy="671.78" rx="4.57" ry="9.2" transform="translate(-188.27 768.26) rotate(-36.24)"/>
        <ellipse class="cls-8" cx="1072.15" cy="648.55" rx="9.33" ry="4.51" transform="translate(281.01 1620.26) rotate(-82.02)"/>
        <g>
          <rect class="cls-2" x="945.76" y="699.35" width="67.12" height="32.31"/>
          <path class="cls-13" d="M950.94,703.17h28.38v23.62c-9.46-.03-18.92-.06-28.38-.09v-23.54Z"/>
          <path class="cls-11" d="M979.32,703.17h28.38v23.62c-9.46-.03-18.92-.06-28.38-.09v-23.54Z"/>
        </g>
        <g>
          <rect class="cls-2" x="1173.18" y="701.24" width="67.12" height="32.31"/>
          <path class="cls-13" d="M1178.36,705.06h28.38v23.62c-9.46-.03-18.92-.06-28.38-.09v-23.54Z"/>
          <path class="cls-11" d="M1206.74,705.06h28.38v23.62c-9.46-.03-18.92-.06-28.38-.09v-23.54Z"/>
        </g>
        <rect class="cls-7" x="1053.82" y="714.01" width="74.63" height="15.98"/>
      </g>
    </g>
  </g>
</svg>