<?xml version="1.0" encoding="UTF-8"?>
<svg xmlns="http://www.w3.org/2000/svg" xmlns:xlink="http://www.w3.org/1999/xlink" viewBox="0 0 1920 848.29">
  <defs>
    <style>
      .cls-1 {
        fill: #e9531d;
      }

      .cls-2 {
        fill: #1d6487;
      }

      .cls-3 {
        fill: #fef5fa;
      }

      .cls-4 {
        fill: #fef9fc;
      }

      .cls-5 {
        fill: #a8d6e0;
      }

      .cls-6 {
        fill: #0f304a;
      }

      .cls-7 {
        fill: #7bc8cd;
      }

      .cls-8 {
        fill: url(#Dégradé_sans_nom_3);
      }

      .cls-9 {
        fill: #0d6d9d;
      }

      .cls-10 {
        fill: #156d9f;
      }

      .cls-11 {
        fill: #e7541c;
      }

      .cls-12 {
        fill: #92cbce;
      }
    </style>
    <linearGradient id="Dégradé_sans_nom_3" data-name="Dégradé sans nom 3" x1="966.32" y1="871.54" x2="955.24" y2="87.12" gradientUnits="userSpaceOnUse">
      <stop offset="0" stop-color="#e4e4e4"/>
      <stop offset=".37" stop-color="#c8e4f7"/>
    </linearGradient>
  </defs>
  <g id="Calque_1" data-name="Calque 1">
    <rect class="cls-8" width="1920" height="848.29"/>
  </g>
  <g id="Calque_3" data-name="Calque 3">
    <g>
      <path class="cls-7" d="M539.53,717.06l70.61,9.44c1.97,1.34,4.12,3.08,6.19,5.34,7.01,7.63,8.89,16.48,9.49,20.97,.09-.79,1.25-9.5,7.63-11.99,1.96-.76,3.66-.65,4.47-.59,9.15,.72,16.05,12.47,14.18,16.24-.07,.14-.24,.51-.26,.51-.1-.04,6.58-15.4,13.03-17.62,7.11-2.44,13.53,14.15,12.38,20.47-1.15,6.32,12.49-19.61,18.11-20.1,5.62-.48,10.3,15.26,10.03,19.54-.26,4.28,10.77-18.3,17.38-19.27,3.84-.56,5.94,13.15,11.57,21.9,.34,.53,.68,.9,1.2,1.04,4.26,1.13,7.65-18.05,21.44-24.55,2.07-.98,.93-.04,13.3-3.21,8.7-2.23,13.08-3.35,16.66-4.74,5.18-2.01,13.01-6.25,20.99-16.25,2.18-1.22,4.36-2.44,6.54-3.65-.25,1.79-.79,4.39-2.11,7.24-4.07,8.76-12.35,12.95-21.63,16.97-25.8,11.17-27.81,6.99-36.08,13.68-13.95,11.29-15.54,27.12-21.04,25.87-6.9-1.57-10.32-24.36-10.32-24.36-4.7,6.06-7.85,11.41-9.91,15.33-2.59,4.91-3.83,8.26-6.22,8.42-2.84,.2-5.28-4.23-7.04-7.41-1.88-3.39-4.28-8.93-5-16.72-3.06,5.06-5.37,8.95-6.75,11.28-3.05,5.15-4.21,7.19-6.8,8.19-2.39,.92-5.55,.8-7.94-.6-7.36-4.3-4.26-18.77-7.29-19.33-3.68-.68-11.32,20.08-11.32,20.08-1.75,.26-4.2,.32-6.02-1.11-2.8-2.19-1.57-5.87-3.91-11.16-.55-1.25-3.36-7.62-6.95-7.91-5.95-.48-8.84,16.1-14.33,16.01-5.84-.09-4.37-18.85-17.21-29.29-4.83-3.92-9.2-4.66-32.41-7.62-15.33-1.96-27.98-3.5-36.75-4.55,.7-2.17,1.4-4.34,2.1-6.5Z"/>
      <polygon class="cls-9" points="534.12 713.94 550.76 718.07 550.76 725.56 534.12 730.45 534.12 713.94"/>
      <g>
        <rect class="cls-9" x="155.28" y="676.83" width="382.01" height="81.63" rx="16.3" ry="16.3" transform="translate(4.43 -2.12) rotate(.35)"/>
        <path class="cls-7" d="M165.21,676.86c23.12-16.77,72.97-58.28,87.91-126.18,2.92-13.25,4.14-25.83,4.29-37.41l54.59-7.51-.8,33.21s53.93-9.75,80.21,1.32l1.01-30.7,56.14,5.02c-1.54,12.55-1.84,26.84,.4,42.32,10,69.11,63.42,110.99,80.93,123.58-121.56-1.22-243.12-2.43-364.68-3.65Z"/>
        <ellipse class="cls-6" cx="346.97" cy="605.96" rx="87.25" ry="52.8" transform="translate(-8.76 5.1) rotate(-.83)"/>
        <ellipse class="cls-10" cx="346.97" cy="601.81" rx="84.38" ry="49.53" transform="translate(-8.7 5.1) rotate(-.83)"/>
        <ellipse class="cls-4" cx="346.41" cy="600.19" rx="40.59" ry="23.16" transform="translate(-8.68 5.09) rotate(-.83)"/>
        <ellipse class="cls-4" cx="363.11" cy="565.55" rx="11.46" ry="9.4" transform="translate(-8.17 5.33) rotate(-.83)"/>
        <ellipse class="cls-4" cx="329.94" cy="565.55" rx="13.07" ry="9.17" transform="translate(-8.17 4.85) rotate(-.83)"/>
        <ellipse class="cls-4" cx="297.7" cy="577.73" rx="14.22" ry="8.71" transform="translate(-8.35 4.38) rotate(-.83)"/>
        <ellipse class="cls-4" cx="283.84" cy="602.73" rx="13.99" ry="8.71" transform="translate(-8.72 4.18) rotate(-.83)"/>
        <ellipse class="cls-4" cx="299.17" cy="626.03" rx="16.51" ry="9.17" transform="translate(-9.06 4.41) rotate(-.83)"/>
        <ellipse class="cls-4" cx="339.39" cy="637.9" rx="16.05" ry="9.4" transform="translate(-9.22 4.99) rotate(-.83)"/>
        <ellipse class="cls-4" cx="380.79" cy="630.19" rx="16.74" ry="9.63" transform="translate(-9.11 5.59) rotate(-.83)"/>
        <ellipse class="cls-4" cx="408.24" cy="609.64" rx="15.59" ry="9.17" transform="translate(-8.81 5.99) rotate(-.83)"/>
        <ellipse class="cls-4" cx="403.29" cy="584.91" rx="16.51" ry="8.94" transform="translate(-8.45 5.92) rotate(-.83)"/>
        <path class="cls-7" d="M904.75,366.52c-13.54,26.64-27.07,53.27-40.61,79.91,4.87,1.03,10.91,3.21,14.72,8.38,9.31,12.65-2.73,32.46-38.16,97.79-26.46,48.8-36.4,68.46-59.96,75.8-9.19,2.86-17.49,2.93-23.25,2.49-20.45,22.42-40.9,44.83-61.36,67.25,3.92,4.22,11.09,10.8,21.88,15.17,11.45,4.63,21.26,4.46,28.18,4.26,0,0,18.77-.53,37.3-8.69,62.02-27.3,107.36-94.13,107.36-94.13,31.59-46.56,95.34-139.71,57.49-206.77-11.85-20.99-29.71-33.8-43.6-41.47Z"/>
        <rect class="cls-2" x="865.37" y="353.26" width="22.39" height="98.37" rx="11.19" ry="11.19" transform="translate(277.07 -353.15) rotate(26.91)"/>
        <rect class="cls-2" x="709.33" y="609.03" width="22.39" height="98.37" rx="11.19" ry="11.19" transform="translate(604.89 -310.82) rotate(40.78)"/>
        <polygon class="cls-9" points="809.96 694.01 814.47 710.55 807.93 714.2 795.54 702.06 809.96 694.01"/>
      </g>
    </g>
  </g>
  <g id="message">
    <g>
      <g>
        <rect class="cls-5" x="1266.87" y="243.17" width="143.31" height="86.6" rx="20.87" ry="20.87"/>
        <path class="cls-5" d="M1321.08,328.68l-38.3,36.02c-.02-11.87-.04-23.73-.07-35.6,12.79-.14,25.57-.28,38.36-.42Z"/>
      </g>
      <g>
        <rect class="cls-1" x="1312.5" y="204.42" width="166.47" height="109.15" rx="20.87" ry="20.87"/>
        <path class="cls-1" d="M1415.99,312.19l44.48,45.4,.08-44.87-44.56-.54Z"/>
      </g>
      <circle class="cls-3" cx="1354.08" cy="258.52" r="11.69"/>
      <circle class="cls-3" cx="1436.78" cy="259" r="11.69"/>
      <circle class="cls-3" cx="1395.43" cy="259" r="11.69"/>
    </g>
    <g>
      <path class="cls-11" d="M127.75,177.96l-.04,.04c-3.9-3.05-8.42-4.57-13.58-4.57-6.24,0-11.56,2.2-15.95,6.61-4.39,4.41-6.59,9.72-6.59,15.93s2.2,11.52,6.59,15.93c4.39,4.41,9.71,6.61,15.95,6.61,5.16,0,9.68-1.52,13.58-4.57l.04,.04s.06-.06,.09-.09c.88-.88,1.93-1.32,3.16-1.32s2.29,.44,3.16,1.32,1.32,1.93,1.32,3.16-.44,2.29-1.32,3.16c-.03,.03-.06,.06-.09,.09l.04,.04c-5.68,4.75-12.35,7.12-20,7.12-8.7,0-16.13-3.08-22.28-9.23s-9.23-13.58-9.23-22.28,3.08-16.13,9.23-22.28,13.58-9.23,22.28-9.23c7.65,0,14.31,2.37,20,7.12l-.04,.04s.06,.06,.09,.09c.88,.88,1.32,1.93,1.32,3.16s-.44,2.29-1.32,3.16-1.93,1.32-3.16,1.32-2.29-.44-3.16-1.32c-.03-.03-.06-.06-.09-.09Z"/>
      <path class="cls-11" d="M178.68,190.05c4.28,4.28,6.42,9.45,6.42,15.51s-2.14,11.24-6.42,15.51c-4.28,4.28-9.45,6.42-15.51,6.42s-11.24-2.14-15.51-6.42c-4.28-4.28-6.42-9.45-6.42-15.51s2.14-11.23,6.42-15.51c4.28-4.28,9.45-6.42,15.51-6.42s11.24,2.14,15.51,6.42Zm-15.51,2.46c-3.6,0-6.68,1.27-9.23,3.8-2.55,2.53-3.82,5.6-3.82,9.21s1.27,6.68,3.82,9.23,5.62,3.82,9.23,3.82,6.67-1.27,9.21-3.82,3.8-5.62,3.8-9.23-1.27-6.67-3.8-9.21c-2.53-2.53-5.6-3.8-9.21-3.8Z"/>
      <path class="cls-11" d="M216.43,183.54c6.18,.35,11.26,2.52,15.25,6.5,4.22,4.22,6.36,9.32,6.42,15.29v16.96c0,1.7-.44,2.99-1.32,3.87s-1.93,1.32-3.16,1.32-2.29-.44-3.16-1.32-1.32-2.14-1.32-3.78v-16.96c0-.26,.01-.53,.04-.79-.18-3.22-1.44-5.99-3.78-8.31-2.55-2.55-5.62-3.82-9.23-3.82h-.18c-3.6,0-6.68,1.27-9.23,3.82-2.34,2.31-3.6,5.08-3.78,8.31,.03,.26,.04,.53,.04,.79v16.96c0,1.64-.44,2.9-1.32,3.78s-1.93,1.32-3.16,1.32-2.29-.44-3.16-1.32-1.32-2.17-1.32-3.87v-16.96c.06-5.98,2.2-11.07,6.42-15.29,3.98-3.98,9.07-6.15,15.25-6.5h.7Z"/>
      <path class="cls-11" d="M249.79,183.45v-8.35c0-1.23,.44-2.29,1.32-3.16s1.93-1.32,3.16-1.32,2.29,.44,3.16,1.32,1.32,1.93,1.32,3.16v8.35h4.88c1.23,0,2.29,.44,3.16,1.32s1.32,1.93,1.32,3.16-.44,2.29-1.32,3.16-1.93,1.32-3.16,1.32h-4.88v30.59c0,1.23-.44,2.29-1.32,3.16s-1.93,1.32-3.16,1.32-2.29-.44-3.16-1.32-1.32-1.93-1.32-3.16v-30.59h-5.05c-1.23,0-2.29-.44-3.16-1.32s-1.32-1.93-1.32-3.16,.44-2.29,1.32-3.16,1.93-1.32,3.16-1.32h5.05Z"/>
      <path class="cls-11" d="M313.68,223.18c0,1.7-.44,2.84-1.32,3.43-.88,.59-1.93,.88-3.16,.88s-2.29-.29-3.16-.88c-.88-.59-1.32-1.7-1.32-3.34-3.75,2.81-8.07,4.22-12.96,4.22-6.06,0-11.24-2.14-15.51-6.42-4.28-4.28-6.42-9.45-6.42-15.51s2.14-11.23,6.42-15.51c4.28-4.28,9.45-6.42,15.51-6.42s11.24,2.14,15.51,6.42,6.36,9.32,6.42,15.29v17.84Zm-12.7-26.85c-2.55-2.55-5.62-3.82-9.23-3.82s-6.67,1.27-9.21,3.8c-2.54,2.53-3.8,5.6-3.8,9.21s1.27,6.68,3.8,9.23c2.53,2.55,5.6,3.82,9.21,3.82s6.68-1.27,9.23-3.82c2.17-2.17,3.41-4.72,3.74-7.65v-1.67c0-.26,.01-.53,.04-.79-.18-3.22-1.44-5.99-3.78-8.31Z"/>
      <path class="cls-11" d="M360,190.05s.01,.04,.04,.04c.85,.85,1.27,1.89,1.27,3.12s-.43,2.23-1.3,3.1c-.86,.86-1.9,1.3-3.1,1.3s-2.27-.44-3.12-1.32h-.04c-2.52-2.52-5.58-3.78-9.18-3.78s-6.68,1.27-9.23,3.8c-2.55,2.53-3.82,5.6-3.82,9.21s1.27,6.68,3.82,9.23,5.62,3.82,9.23,3.82,6.64-1.26,9.18-3.78c.03-.03,.06-.06,.09-.09,.85-.85,1.89-1.27,3.12-1.27s2.29,.43,3.16,1.3c.88,.86,1.32,1.91,1.32,3.14s-.44,2.29-1.32,3.16c-.03,.03-.06,.06-.09,.09-4.25,4.25-9.4,6.37-15.47,6.37s-11.24-2.14-15.51-6.42c-4.28-4.28-6.42-9.45-6.42-15.51s2.14-11.23,6.42-15.51c4.28-4.28,9.45-6.42,15.51-6.42s11.22,2.12,15.47,6.37l-.04,.04Z"/>
      <path class="cls-11" d="M377.45,183.45v-8.35c0-1.23,.44-2.29,1.32-3.16s1.93-1.32,3.16-1.32,2.29,.44,3.16,1.32,1.32,1.93,1.32,3.16v8.35h4.88c1.23,0,2.29,.44,3.16,1.32s1.32,1.93,1.32,3.16-.44,2.29-1.32,3.16-1.93,1.32-3.16,1.32h-4.88v30.59c0,1.23-.44,2.29-1.32,3.16s-1.93,1.32-3.16,1.32-2.29-.44-3.16-1.32-1.32-1.93-1.32-3.16v-30.59h-5.05c-1.23,0-2.29-.44-3.16-1.32s-1.32-1.93-1.32-3.16,.44-2.29,1.32-3.16,1.93-1.32,3.16-1.32h5.05Z"/>
      <path class="cls-11" d="M424.73,193.6c-1.61-.73-3.38-1.1-5.32-1.1-3.6,0-6.68,1.27-9.23,3.8-2.55,2.53-3.82,5.6-3.82,9.21s1.27,6.68,3.82,9.23,5.62,3.82,9.23,3.82,6.64-1.26,9.18-3.78c.03-.03,.06-.06,.09-.09,.85-.85,1.89-1.27,3.12-1.27s2.29,.43,3.16,1.3c.88,.86,1.32,1.91,1.32,3.14s-.44,2.29-1.32,3.16c-.03,.03-.06,.06-.09,.09-4.25,4.25-9.4,6.37-15.47,6.37s-11.24-2.14-15.51-6.42c-4.28-4.28-6.42-9.45-6.42-15.51s2.14-11.23,6.42-15.51c4.28-4.28,9.45-6.42,15.51-6.42s11.22,2.12,15.47,6.37l-.04,.04s.01,.04,.04,.04c.85,.85,1.27,1.89,1.27,3.12s-.42,2.23-1.27,3.08l-12.57,12.48c-.88,.85-1.93,1.27-3.16,1.27s-2.33-.42-3.21-1.27c-.85-.88-1.27-1.95-1.27-3.21s.42-2.29,1.27-3.16l8.79-8.79Z"/>
      <path class="cls-11" d="M458.66,218.7h24.57c1.2,0,2.23,.42,3.1,1.27,.86,.85,1.3,1.89,1.3,3.12s-.43,2.23-1.3,3.1c-.86,.86-1.9,1.3-3.1,1.3h-35.16c-1.23,0-2.27-.43-3.12-1.3-.85-.86-1.27-1.9-1.27-3.1s.42-2.27,1.27-3.12l27.69-27.64h-22.37c-1.23,0-2.27-.43-3.12-1.3-.85-.86-1.27-1.9-1.27-3.1s.42-2.27,1.27-3.12c.85-.85,1.89-1.27,3.12-1.27h32.96c1.2,0,2.23,.42,3.1,1.27,.86,.85,1.3,1.89,1.3,3.12s-.42,2.23-1.27,3.08l-.04,.04-27.64,27.64Z"/>
      <path class="cls-11" d="M497.81,193.74c.88-.88,1.93-1.32,3.16-1.32h17.58c1.23,0,2.29,.44,3.16,1.32s1.32,1.93,1.32,3.16-.44,2.29-1.32,3.16-1.93,1.32-3.16,1.32h-17.58c-1.23,0-2.29-.44-3.16-1.32s-1.32-1.93-1.32-3.16,.44-2.29,1.32-3.16Z"/>
      <path class="cls-11" d="M554.06,183.54c6.18,.35,11.26,2.52,15.25,6.5,4.22,4.22,6.36,9.32,6.42,15.29v16.96c0,1.7-.44,2.99-1.32,3.87s-1.93,1.32-3.16,1.32-2.29-.44-3.16-1.32-1.32-2.14-1.32-3.78v-16.96c0-.26,.01-.53,.04-.79-.18-3.22-1.44-5.99-3.78-8.31-2.55-2.55-5.62-3.82-9.23-3.82h-.18c-3.6,0-6.68,1.27-9.23,3.82-2.34,2.31-3.6,5.08-3.78,8.31,.03,.26,.04,.53,.04,.79v16.96c0,1.64-.44,2.9-1.32,3.78s-1.93,1.32-3.16,1.32-2.29-.44-3.16-1.32-1.32-2.17-1.32-3.87v-16.96c.06-5.98,2.2-11.07,6.42-15.29,3.98-3.98,9.07-6.15,15.25-6.5h.7Z"/>
      <path class="cls-11" d="M621.96,190.05c4.28,4.28,6.42,9.45,6.42,15.51s-2.14,11.24-6.42,15.51c-4.28,4.28-9.45,6.42-15.51,6.42s-11.24-2.14-15.51-6.42c-4.28-4.28-6.42-9.45-6.42-15.51s2.14-11.23,6.42-15.51c4.28-4.28,9.45-6.42,15.51-6.42s11.24,2.14,15.51,6.42Zm-15.51,2.46c-3.6,0-6.68,1.27-9.23,3.8-2.55,2.53-3.82,5.6-3.82,9.21s1.27,6.68,3.82,9.23,5.62,3.82,9.23,3.82,6.67-1.27,9.21-3.82,3.8-5.62,3.8-9.23-1.27-6.67-3.8-9.21c-2.53-2.53-5.6-3.8-9.21-3.8Z"/>
      <path class="cls-11" d="M659.01,227.49c-6.18-.35-11.26-2.52-15.25-6.5-4.22-4.22-6.36-9.32-6.42-15.29v-16.96c0-1.7,.44-2.99,1.32-3.87s1.93-1.32,3.16-1.32,2.29,.44,3.16,1.32,1.32,2.14,1.32,3.78v16.96c0,.26-.01,.53-.04,.79,.18,3.22,1.44,5.99,3.78,8.31,2.55,2.55,5.62,3.82,9.23,3.82h.18c3.6,0,6.68-1.27,9.23-3.82,2.34-2.31,3.6-5.08,3.78-8.31-.03-.26-.04-.53-.04-.79v-16.96c0-1.64,.44-2.9,1.32-3.78s1.93-1.32,3.16-1.32,2.29,.44,3.16,1.32,1.32,2.17,1.32,3.87v16.96c-.06,5.98-2.2,11.07-6.42,15.29-3.98,3.98-9.07,6.15-15.25,6.5h-.7Z"/>
      <path class="cls-11" d="M704.45,183.54c1.23,0,2.27,.42,3.12,1.27,.85,.85,1.27,1.89,1.27,3.12s-.42,2.23-1.27,3.1c-.85,.86-1.89,1.3-3.12,1.3-.62,0-1.14,.21-1.56,.64-.42,.42-.64,.94-.64,1.56s.21,1.14,.64,1.56c.42,.42,.95,.64,1.56,.64,4.25,0,7.87,1.5,10.88,4.5,3,3,4.5,6.63,4.5,10.88s-1.5,7.87-4.5,10.88c-3,3-6.63,4.5-10.88,4.5s-7.87-1.5-10.88-4.5c-3-3-4.5-6.63-4.5-10.88,0-1.23,.43-2.27,1.3-3.12,.86-.85,1.9-1.27,3.1-1.27s2.27,.42,3.12,1.27c.85,.85,1.27,1.89,1.27,3.12,0,1.82,.64,3.37,1.93,4.66,1.29,1.29,2.84,1.93,4.66,1.93s3.37-.64,4.66-1.93c1.29-1.29,1.93-2.84,1.93-4.66s-.64-3.37-1.93-4.66c-1.29-1.29-2.84-1.93-4.66-1.93-3.05,0-5.64-1.08-7.78-3.23s-3.21-4.74-3.21-7.76,1.07-5.64,3.21-7.78c2.14-2.14,4.73-3.21,7.78-3.21Z"/>
    </g>
    <g>
      <g>
        <path class="cls-12" d="M1562.28,710.55h124.1s-53.6-116.64-124.1,0Z"/>
        <ellipse class="cls-12" cx="1624.43" cy="627.36" rx="25.87" ry="23.38"/>
      </g>
      <g>
        <path class="cls-11" d="M1619.06,710.55h157.28s-67.93-159.23-157.28,0Z"/>
        <ellipse class="cls-11" cx="1697.83" cy="596.98" rx="32.79" ry="31.92"/>
      </g>
    </g>
  </g>
</svg>