<svg width="68" height="37" viewBox="0 0 68 37" fill="none" xmlns="http://www.w3.org/2000/svg">
<g clip-path="url(#clip0_2_2)">
<path d="M10.5207 14.4679C10.7221 10.5451 12.5944 8.25837 16.2602 8.13699C23.2283 7.90395 30.2062 7.86511 37.1742 8.01562C40.7909 8.0933 42.6877 9.95276 42.845 13.7494C43.4642 28.4698 44.1226 31.8683 42.9138 32.1304C42.6927 32.179 42.2848 32.1498 41.6263 31.4507C41.1546 30.6691 39.9605 28.9553 37.7688 28.1348C35.0415 27.1104 31.8081 27.8289 30.0194 29.5524C29.1202 30.4166 29.0121 31.1303 27.8425 31.7857C26.5845 32.4897 25.1988 32.4946 23.6116 32.4363C21.9506 32.3732 20.2848 32.3683 18.6288 32.4363C17.3462 32.4946 16.6189 32.0964 15.9212 30.7565C13.5231 26.1539 7.70494 25.7558 5.29707 30.2224C5.28233 30.2515 5.26759 30.2758 5.25285 30.3001C3.74916 33.0189 -0.373687 31.577 0.0243478 28.4843C0.240564 26.7948 0.510834 25.1878 1.20862 23.8235C2.58946 21.1241 5.0268 21.3378 7.57717 21.4251C9.17422 21.4785 10.4912 20.1628 10.4715 18.551C10.4568 17.1527 10.447 15.803 10.5157 14.4582L10.5207 14.4679ZM37.4592 21.4543C38.9826 21.4543 40.2307 20.2308 40.275 18.6918C40.3192 17.2353 40.3339 15.7982 40.1472 14.3902C39.7934 11.7297 37.6656 10.8946 35.5084 10.8558C29.4592 10.7538 23.4101 10.7684 17.361 10.8995C14.4912 10.9626 13.5133 12.0647 13.2971 15.1282C13.2135 16.2837 13.2185 17.444 13.2381 18.6578C13.2627 20.2114 14.5157 21.4543 16.0538 21.4543H37.4592Z" fill="white"/>
<path d="M67.7543 19.3034C68.6093 13.0648 67.5282 11.8704 59.8575 10.7635C59.4447 10.7052 59.1351 10.3508 59.14 9.92843C59.1499 8.66128 59.1793 7.35043 59.1253 6.04443C58.9877 2.42745 57.3022 0.228131 53.9754 0.111611C46.0639 -0.165124 39.1793 0.135886 37.5331 0.208711C37.1155 0.228131 36.7027 0.310666 36.285 0.325231C35.7739 0.339796 35.4988 0.310666 35.2874 0.509722C35.1155 0.674792 35.0909 0.893267 35.0516 1.20399C35.0123 1.51956 34.9484 2.01963 35.1941 2.32549C35.4791 2.68476 36.0688 2.64107 36.4717 2.61194C37.6462 2.5294 38.8255 2.49542 40.0049 2.41288C41.1204 2.3352 40.9484 2.49542 43.027 2.476C44.8698 2.45658 45.9115 2.30607 51.7199 2.32549C55.9754 2.34006 56.9631 3.42758 56.9631 8.04469C56.9631 8.71954 56.9631 9.39438 56.9631 10.244C56.9631 10.7052 56.5897 11.0839 56.1327 11.0839H47.0221C46.5405 11.0839 46.1621 11.4966 46.1916 11.9772C46.3489 14.4679 46.4914 16.7449 46.6486 19.284C46.6781 19.7258 47.0368 20.0705 47.4742 20.0754C49.4103 20.09 51.3513 20.1531 53.2776 19.9977C53.7838 19.9589 54.2948 19.017 54.683 18.4004C56.9533 14.8126 61.597 14.6184 63.597 18.3373C64.5995 20.2016 65.7248 20.2259 67.0663 20.0074C67.425 19.9492 67.7051 19.6579 67.7543 19.2986V19.3034Z" fill="white"/>
<path d="M31.7101 33.3539C31.7494 35.359 33.3219 36.9903 35.2236 36.9951C37.2973 37 38.7813 35.3542 38.7273 33.116C38.6732 30.9652 37.2678 29.499 35.2531 29.4893C33.1843 29.4796 31.6708 31.1303 31.715 33.3539H31.7101Z" fill="white"/>
<path d="M6.86486 33.2714C6.85995 35.291 8.39803 36.9515 10.3194 37C12.2801 37.0486 14 35.2668 13.9853 33.1985C13.9705 31.1788 12.4226 29.5281 10.5061 29.4845C8.43243 29.4359 6.86978 31.0575 6.86486 33.2762V33.2714Z" fill="white"/>
<path d="M55.8477 21.4154C55.887 23.4205 57.4595 25.0518 59.3612 25.0567C61.4349 25.0615 62.9189 23.4157 62.8649 21.1775C62.8108 19.0268 61.4054 17.5606 59.3907 17.5508C57.3219 17.5411 55.8083 19.1918 55.8526 21.4154H55.8477Z" fill="white"/>
<path d="M31.7052 16.7352C31.7346 18.1189 32.8305 19.2452 34.1523 19.2501C35.5971 19.2501 36.6339 18.1189 36.5946 16.5701C36.5553 15.0894 35.5774 14.0747 34.172 14.0698C32.7273 14.0601 31.6757 15.201 31.7052 16.7352Z" fill="white"/>
<path d="M23.5774 16.7352C23.6069 18.1189 24.7027 19.2452 26.0246 19.2501C27.4693 19.2501 28.5061 18.1189 28.4668 16.5701C28.4275 15.0894 27.4496 14.0747 26.0442 14.0698C24.5995 14.0601 23.5479 15.201 23.5774 16.7352Z" fill="white"/>
<path d="M15.4889 16.5264C15.5184 17.9101 16.6143 19.0365 17.9361 19.0413C19.3808 19.0413 20.4177 17.9101 20.3784 16.3614C20.3391 14.8806 19.3612 13.8659 17.9558 13.861C16.5111 13.8513 15.4595 14.9923 15.4889 16.5264Z" fill="white"/>
<path d="M6.86486 33.2714C6.85995 35.291 8.39803 36.9515 10.3194 37C12.2801 37.0486 14 35.2668 13.9853 33.1985C13.9705 31.1788 12.4226 29.5281 10.5061 29.4845C8.43243 29.4359 6.86978 31.0575 6.86486 33.2762V33.2714Z" fill="white"/>
<path d="M23.5774 16.7352C23.6069 18.1189 24.7027 19.2452 26.0246 19.2501C27.4693 19.2501 28.5061 18.1189 28.4668 16.5701C28.4275 15.0894 27.4496 14.0747 26.0442 14.0698C24.5995 14.0601 23.5479 15.201 23.5774 16.7352Z" fill="white"/>
<path d="M15.4889 16.5264C15.5184 17.9101 16.6143 19.0365 17.9361 19.0413C19.3808 19.0413 20.4177 17.9101 20.3784 16.3614C20.3391 14.8806 19.3612 13.8659 17.9558 13.861C16.5111 13.8513 15.4595 14.9923 15.4889 16.5264Z" fill="white"/>
<path d="M49.9263 7.06403C49.9558 8.44771 51.0516 9.57407 52.3735 9.57893C53.8182 9.57893 54.855 8.44771 54.8157 6.89896C54.7764 5.41819 53.7985 4.40349 52.3931 4.39864C50.9484 4.38893 49.8968 5.52985 49.9263 7.06403Z" fill="white"/>
<path d="M42.57 7.06403C42.5995 8.44771 43.6953 9.57407 45.0172 9.57893C46.4619 9.57893 47.4988 8.44771 47.4595 6.89896C47.4202 5.41819 46.4423 4.40349 45.0369 4.39864C43.5921 4.38893 42.5405 5.52985 42.57 7.06403Z" fill="white"/>
</g>
<defs>
<clipPath id="clip0_2_2">
<rect width="68" height="37" fill="white"/>
</clipPath>
</defs>
</svg>
