<?xml version="1.0" encoding="UTF-8"?>
<svg id="Calque_1" data-name="Calque 1" xmlns="http://www.w3.org/2000/svg" viewBox="0 0 40.05 40.08">
  <defs>
    <style>
      .cls-1 {
        fill: #ec671b;
      }
    </style>
  </defs>
  <path class="cls-1" d="M32.08,.84l-10.05,10.05c-1.12,1.12-2.93,1.12-4.05,0L7.97,.89c-1.12-1.12-2.93-1.12-4.05,0L1,3.81c-1.12,1.12-1.12,2.93,0,4.05l10,10c1.12,1.12,1.12,2.93,0,4.05L.84,32.08c-1.12,1.12-1.12,2.93,0,4.05l3.1,3.1c1.13,1.13,2.97,1.12,4.08-.03l10.1-10.41c1.12-1.15,2.96-1.16,4.09-.02l9.97,10.04c1.12,1.13,2.94,1.13,4.06,0l2.83-2.83c1.11-1.11,1.12-2.91,.02-4.03l-9.82-10.05c-1.1-1.12-1.09-2.92,.02-4.03l9.91-9.91c1.12-1.12,1.12-2.93,0-4.05l-3.08-3.08c-1.12-1.12-2.93-1.12-4.05,0Z"/>
</svg>