<?xml version="1.0" encoding="UTF-8"?>
<svg xmlns="http://www.w3.org/2000/svg" xmlns:xlink="http://www.w3.org/1999/xlink" viewBox="0 0 1920 862.97">
  <defs>
    <style>
      .cls-1 {
        fill: #fff;
      }

      .cls-2 {
        fill: #fcd141;
      }

      .cls-3 {
        fill: #f29587;
      }

      .cls-4 {
        fill: #d85c54;
      }

      .cls-5 {
        fill: #f0b764;
      }

      .cls-6 {
        fill: #ac79b3;
      }

      .cls-7 {
        fill: #7cb448;
      }

      .cls-8 {
        fill: #f6f6f6;
        stroke: #f6f6f6;
        stroke-miterlimit: 10;
        stroke-width: 2px;
      }

      .cls-9 {
        fill: #fad564;
      }

      .cls-10 {
        fill: #dda924;
      }

      .cls-11 {
        fill: url(#Dégradé_sans_nom_7);
      }

      .cls-12 {
        fill: #67a030;
      }

      .cls-13 {
        fill: #cca3cc;
      }

      .cls-14 {
        fill: #fff1c9;
      }

      .cls-15 {
        fill: #86be58;
      }

      .cls-16 {
        fill: #e97764;
      }

      .cls-17, .cls-18 {
        fill: #263454;
      }

      .cls-19 {
        fill: #db9525;
      }

      .cls-20 {
        fill: #a23418;
      }

      .cls-21 {
        fill: #555e79;
      }

      .cls-18 {
        font-family: MyriadPro-Regular, 'Myriad Pro';
        font-size: 151px;
      }

      .cls-22 {
        fill: #e5ac59;
      }

      .cls-23 {
        fill: #cd533a;
      }
    </style>
    <linearGradient id="Dégradé_sans_nom_7" data-name="Dégradé sans nom 7" x1="965.65" y1="836.96" x2="954.56" y2="52.54" gradientUnits="userSpaceOnUse">
      <stop offset="0" stop-color="#e4e4e4"/>
      <stop offset="1" stop-color="#c8e4f7"/>
    </linearGradient>
  </defs>
  <g id="Calque_2" data-name="Calque 2">
    <rect class="cls-11" y="13.26" width="1920" height="848.29"/>
  </g>
  <g id="nuage">
    <path class="cls-1" d="M73.9,135.09s2.47-55.76,61.79-34.85c-.16-1.95-2.05-30.96,19.84-44.6,11.89-7.41,25.99-7.28,32.4-7.22,5.67,.05,17.22,.16,27.22,5.55,15.62,8.42,23.44,27.57,21.87,48.45,17.86-8.86,37.98-4.85,48.54,6.62,5.25,5.7,7.77,14.7,4.84,28.66,27.48-3.28,48.74,8.28,51.71,21.84,2.04,9.28-4.57,19.24-11.4,24.98-13.39,11.28-32.51,10.48-39.07,10.25-33.62-1.17-117.1-.55-230.59,0-.94,.17-19.13,3.29-30.26-8.15-10.47-10.76-6.78-26.26-1.48-34.81,8.05-12.96,25.95-19.84,44.59-16.72Z"/>
    <path class="cls-1" d="M1570.88,84.4s2.47-54.29,61.79-33.93c-.16-1.9-2.05-30.14,19.84-43.42C1664.4-.17,1678.49-.05,1684.9,.01c5.67,.05,17.22,.15,27.22,5.4,15.62,8.2,23.44,26.85,21.87,47.18,17.86-8.63,37.98-4.72,48.54,6.45,5.25,5.55,7.77,14.31,4.84,27.91,27.48-3.19,48.74,8.07,51.71,21.26,2.04,9.04-4.57,18.73-11.4,24.33-13.39,10.98-32.51,10.2-39.07,9.98-33.62-1.14-117.1-.54-230.59,0-.94,.17-19.13,3.21-30.26-7.94-10.47-10.48-6.78-25.57-1.48-33.89,8.05-12.62,25.95-19.32,44.59-16.28Z"/>
    <path class="cls-1" d="M631.44,210.79s2.65-57.21,66.33-35.76c-.17-2-2.2-31.76,21.3-45.75,12.77-7.6,27.9-7.47,34.78-7.41,6.09,.05,18.49,.16,29.22,5.69,16.77,8.64,25.17,28.29,23.48,49.71,19.17-9.09,40.77-4.98,52.11,6.8,5.63,5.85,8.34,15.08,5.2,29.41,29.5-3.37,52.33,8.5,55.52,22.4,2.18,9.53-4.91,19.74-12.24,25.63-14.38,11.57-34.9,10.75-41.95,10.52-36.09-1.2-125.71-.56-247.56,0-1.01,.18-20.54,3.38-32.49-8.36-11.24-11.04-7.28-26.94-1.58-35.71,8.64-13.3,27.86-20.36,47.87-17.16Z"/>
    <path class="cls-1" d="M1328.57,406.34s2.47-53.17,61.79-33.23c-.16-1.86-2.05-29.51,19.84-42.52,11.89-7.07,25.99-6.94,32.4-6.89,5.67,.05,17.22,.15,27.22,5.29,15.62,8.03,23.44,26.29,21.87,46.2,17.86-8.45,37.98-4.63,48.54,6.32,5.25,5.43,7.77,14.02,4.84,27.33,27.48-3.13,48.74,7.9,51.71,20.82,2.04,8.85-4.57,18.34-11.4,23.82-13.39,10.75-32.51,9.99-39.07,9.77-33.62-1.11-117.1-.52-230.59,0-.94,.17-19.13,3.14-30.26-7.77-10.47-10.26-6.78-25.04-1.48-33.19,8.05-12.36,25.95-18.92,44.59-15.95Z"/>
    <path class="cls-1" d="M1066.27,143.97s2.47-46.62,61.79-29.14c-.16-1.63-2.05-25.88,19.84-37.28,11.89-6.2,25.99-6.09,32.4-6.04,5.67,.04,17.22,.13,27.22,4.64,15.62,7.04,23.44,23.05,21.87,40.51,17.86-7.41,37.98-4.06,48.54,5.54,5.25,4.76,7.77,12.29,4.84,23.96,27.48-2.74,48.74,6.93,51.71,18.25,2.04,7.76-4.57,16.08-11.4,20.89-13.39,9.43-32.51,8.76-39.07,8.57-33.62-.98-117.1-.46-230.59,0-.94,.15-19.13,2.75-30.26-6.81-10.47-8.99-6.78-21.95-1.48-29.1,8.05-10.84,25.95-16.59,44.59-13.98Z"/>
    <path class="cls-1" d="M599.48,527.28s2.47-53.17,61.79-33.23c-.16-1.86-2.05-29.51,19.84-42.52,11.89-7.07,25.99-6.94,32.4-6.89,5.67,.05,17.22,.15,27.22,5.29,15.62,8.03,23.44,26.29,21.87,46.2,17.86-8.45,37.98-4.63,48.54,6.32,5.25,5.43,7.77,14.02,4.84,27.33,27.48-3.13,48.74,7.9,51.71,20.82,2.04,8.85-4.57,18.34-11.4,23.82-13.39,10.75-32.51,9.99-39.07,9.77-33.62-1.11-117.1-.52-230.59,0-.94,.17-19.13,3.14-30.26-7.77-10.47-10.26-6.78-25.04-1.48-33.19,8.05-12.36,25.95-18.92,44.59-15.95Z"/>
    <path class="cls-1" d="M73.9,527.28s2.47-53.17,61.79-33.23c-.16-1.86-2.05-29.51,19.84-42.52,11.89-7.07,25.99-6.94,32.4-6.89,5.67,.05,17.22,.15,27.22,5.29,15.62,8.03,23.44,26.29,21.87,46.2,17.86-8.45,37.98-4.63,48.54,6.32,5.25,5.43,7.77,14.02,4.84,27.33,27.48-3.13,48.74,7.9,51.71,20.82,2.04,8.85-4.57,18.34-11.4,23.82-13.39,10.75-32.51,9.99-39.07,9.77-33.62-1.11-117.1-.52-230.59,0-.94,.17-19.13,3.14-30.26-7.77-10.47-10.26-6.78-25.04-1.48-33.19,8.05-12.36,25.95-18.92,44.59-15.95Z"/>
  </g>
  <g id="Calque_1" data-name="Calque 1">
    <rect class="cls-17" x="1157.02" y="783.04" width="46.85" height="77.73" rx="23.42" ry="23.42"/>
    <rect class="cls-17" x="1422.36" y="783.04" width="46.85" height="77.73" rx="23.42" ry="23.42"/>
    <path class="cls-2" d="M1175.67,683.07v-16.2s-36.69-1.83-39.59,26.29h38.37s1.22-10.09,1.22-10.09Z"/>
    <polygon class="cls-10" points="1136.43 690.67 1174.83 689.94 1174.44 693.16 1136.07 693.16 1136.43 690.67"/>
    <path class="cls-2" d="M1450.83,684.9v-16.2s36.69-1.83,39.59,26.29h-38.37l-1.22-10.09Z"/>
    <polygon class="cls-10" points="1490.06 692.5 1451.66 691.77 1452.05 694.99 1490.42 694.99 1490.06 692.5"/>
    <path class="cls-2" d="M1155.87,707.37s38.06-89.89,60.08-88.97c0,0,71.31-34.87,200.52,0,0,0,21.66,4.13,47.23,86.68s-307.83,2.29-307.83,2.29Z"/>
    <path class="cls-17" d="M1196,683.07s11.46-56.87,39.44-59.62,63.75-18.34,162.8,2.29c0,0,23.56,7.16,31.18,57.32h-233.43Z"/>
    <rect class="cls-2" x="1132.48" y="697.74" width="360.46" height="120.15" rx="38.06" ry="38.06"/>
    <g>
      <path class="cls-10" d="M1142.5,759.91v38.79c0,3.76,3.09,6.82,6.91,6.82h57.63c6.8,0,9.51-8.67,3.89-12.45l-57.63-38.79c-4.59-3.09-10.8,.15-10.8,5.63Z"/>
      <path class="cls-14" d="M1146.94,765.29v31.32c0,3.04,2.46,5.5,5.5,5.5h45.91c5.41,0,7.57-7,3.1-10.05l-45.91-31.32c-3.65-2.49-8.6,.12-8.6,4.55Z"/>
    </g>
    <g>
      <path class="cls-10" d="M1483.73,756.5v38.79c0,3.76-3.09,6.82-6.91,6.82h-57.63c-6.8,0-9.51-8.67-3.89-12.45l57.63-38.79c4.59-3.09,10.8,.15,10.8,5.63Z"/>
      <path class="cls-14" d="M1479.29,761.89v31.32c0,3.04-2.46,5.5-5.5,5.5h-45.91c-5.41,0-7.57-7-3.1-10.05l45.91-31.32c3.65-2.49,8.6,.12,8.6,4.55Z"/>
    </g>
    <g>
      <circle class="cls-10" cx="1175.4" cy="736.23" r="16.85"/>
      <circle class="cls-14" cx="1175.4" cy="736.81" r="12.87"/>
    </g>
    <g>
      <ellipse class="cls-10" cx="1211.13" cy="759.78" rx="9.86" ry="10.03"/>
      <ellipse class="cls-14" cx="1211.13" cy="760.12" rx="7.53" ry="7.66"/>
    </g>
    <g>
      <ellipse class="cls-10" cx="1416.47" cy="757.75" rx="9.86" ry="10.03"/>
      <ellipse class="cls-14" cx="1416.47" cy="758.1" rx="7.53" ry="7.66"/>
    </g>
    <g>
      <circle class="cls-10" cx="1450.83" cy="735.58" r="16.85"/>
      <circle class="cls-14" cx="1450.83" cy="736.16" r="12.87"/>
    </g>
    <rect class="cls-8" x="1246.21" y="743.91" width="132.54" height="3.81" rx="1.91" ry="1.91"/>
    <rect class="cls-8" x="1245.45" y="757.28" width="132.54" height="3.81" rx="1.91" ry="1.91"/>
    <rect class="cls-8" x="1245.45" y="784.02" width="132.54" height="3.81" rx="1.91" ry="1.91"/>
    <rect class="cls-8" x="1245.45" y="770.65" width="132.54" height="3.81" rx="1.91" ry="1.91"/>
    <polygon class="cls-21" points="1253.06 620.75 1207.23 683.07 1234.29 683.07 1275.56 617.22 1253.06 620.75"/>
    <path class="cls-21" d="M1305.37,615.24c-14.11,22.61-28.23,45.22-42.34,67.83h44.18l40.61-65.55c-7.46-.86-15.4-1.54-23.78-1.92-6.49-.3-12.72-.4-18.67-.36Z"/>
    <polygon class="cls-21" points="1371.51 620.77 1332.2 683.07 1355.13 683.07 1389.42 623.97 1371.51 620.77"/>
    <path class="cls-9" d="M1201.91,694.99c8.2,9.73,21.28,22.61,40.36,31.41,0,0,139.18,0,139.18,0h0c3.47-1.44,7.17-3.26,10.98-5.56,13.19-7.99,21.6-18.25,26.63-25.85h-217.15Z"/>
    <path class="cls-17" d="M1526.72,860.77h41.58v-146.83s-18.65-43.41-41.58,1.53v145.3Z"/>
    <rect class="cls-17" x="1543.39" y="413.41" width="7.34" height="290.29"/>
    <g>
      <path class="cls-4" d="M1443.41,274.46v138.96h207.75c.15-46.09,.31-92.18,.46-138.27-69.4-.23-138.8-.46-208.2-.69Z"/>
      <path class="cls-1" d="M1449.98,281.68v124.51h193.71c.14-41.3,.29-82.6,.43-123.89-64.71-.21-129.43-.41-194.14-.62Z"/>
    </g>
    <text class="cls-18" transform="translate(1453.04 393.71)"><tspan x="0" y="0">P</tspan></text>
    <g>
      <path class="cls-17" d="M1536.84,359.32c.3-5.99,3.11-9.48,8.6-9.67,10.44-.36,20.89-.41,31.34-.18,5.42,.12,8.26,2.96,8.5,8.76,.93,22.47,1.91,27.66,.1,28.06-.33,.07-.94,.03-1.93-1.04-.71-1.19-2.5-3.81-5.78-5.06-4.09-1.56-8.93-.47-11.61,2.17-1.34,1.32-1.51,2.41-3.26,3.41-1.88,1.07-3.96,1.08-6.34,.99-2.49-.1-4.98-.1-7.47,0-1.92,.09-3.01-.52-4.06-2.57-3.6-7.02-12.31-7.63-15.92-.81-.02,.04-.04,.08-.06,.12-2.25,4.15-8.43,1.95-7.83-2.77,.33-2.58,.73-5.04,1.78-7.11,2.07-4.12,5.72-3.79,9.54-3.66,2.39,.08,4.36-1.93,4.34-4.39-.02-2.13-.04-4.2,.07-6.25Zm40.36,10.67c2.28,0,4.15-1.87,4.22-4.21,.06-2.22,.09-4.42-.19-6.56-.53-4.06-3.72-5.34-6.95-5.39-9.06-.16-18.13-.14-27.19,.06-4.3,.09-5.77,1.78-6.09,6.45-.12,1.76-.12,3.54-.09,5.39,.03,2.37,1.92,4.27,4.22,4.27h32.07Z"/>
      <path class="cls-17" d="M1622.6,366.7c1.28-9.52-.34-11.35-11.83-13.04-.62-.09-1.08-.63-1.08-1.27,.02-1.94,.06-3.94-.02-5.93-.21-5.52-2.73-8.88-7.72-9.06-11.85-.42-22.17,.04-24.64,.15-.63,.03-1.25,.16-1.87,.18-.77,.02-1.18-.02-1.49,.28-.25,.25-.3,.58-.35,1.06-.06,.48-.15,1.24,.21,1.71,.43,.55,1.31,.48,1.92,.44,1.76-.13,3.53-.18,5.29-.3,1.67-.12,1.41,.13,4.53,.1,2.76-.03,4.32-.26,13.03-.23,6.38,.02,7.86,1.68,7.86,8.73,0,1.03,0,2.06,0,3.36,0,.7-.56,1.28-1.24,1.28h-13.65c-.72,0-1.29,.63-1.24,1.37,.23,3.8,.45,7.28,.69,11.15,.04,.67,.58,1.2,1.24,1.21,2.9,.03,5.81,.12,8.7-.12,.76-.06,1.52-1.5,2.1-2.44,3.4-5.48,10.36-5.77,13.36-.09,1.5,2.85,3.19,2.88,5.2,2.55,.53-.09,.95-.53,1.03-1.08Z"/>
      <path class="cls-17" d="M1568.59,388.14c.06,3.06,2.42,5.55,5.26,5.56,3.1,0,5.33-2.51,5.25-5.92-.08-3.28-2.19-5.52-5.21-5.54-3.1-.02-5.37,2.51-5.3,5.9Z"/>
      <path class="cls-17" d="M1531.37,388.02c0,3.08,2.3,5.62,5.18,5.69,2.94,.08,5.52-2.64,5.49-5.8-.02-3.08-2.34-5.6-5.21-5.67-3.11-.07-5.45,2.4-5.46,5.79Z"/>
      <path class="cls-17" d="M1604.75,369.92c.06,3.06,2.42,5.55,5.26,5.56,3.1,0,5.33-2.51,5.25-5.92-.08-3.28-2.19-5.52-5.21-5.54-3.1-.02-5.37,2.51-5.3,5.9Z"/>
      <path class="cls-17" d="M1568.59,362.78c.04,2.11,1.68,3.83,3.67,3.84,2.16,0,3.72-1.73,3.66-4.09-.06-2.26-1.52-3.81-3.63-3.82-2.16-.01-3.74,1.73-3.7,4.07Z"/>
      <path class="cls-17" d="M1556.4,362.78c.04,2.11,1.68,3.83,3.67,3.84,2.16,0,3.72-1.73,3.66-4.09-.06-2.26-1.52-3.81-3.63-3.82-2.16-.01-3.74,1.73-3.7,4.07Z"/>
      <path class="cls-17" d="M1544.29,362.46c.04,2.11,1.68,3.83,3.67,3.84,2.16,0,3.72-1.73,3.66-4.09-.06-2.26-1.52-3.81-3.63-3.82-2.16-.01-3.74,1.73-3.7,4.07Z"/>
      <path class="cls-17" d="M1595.89,348.02c.04,2.11,1.68,3.83,3.67,3.84,2.16,0,3.72-1.73,3.66-4.09-.06-2.26-1.52-3.81-3.63-3.82-2.16-.01-3.74,1.73-3.7,4.07Z"/>
      <path class="cls-17" d="M1584.86,348.02c.04,2.11,1.68,3.83,3.67,3.84,2.16,0,3.72-1.73,3.66-4.09-.06-2.26-1.52-3.81-3.63-3.82-2.16-.01-3.74,1.73-3.7,4.07Z"/>
    </g>
    <rect class="cls-17" x="750.45" y="782.61" width="46.85" height="77.73" rx="23.42" ry="23.42"/>
    <rect class="cls-17" x="1015.8" y="782.61" width="46.85" height="77.73" rx="23.42" ry="23.42"/>
    <path class="cls-6" d="M769.1,682.63v-16.2s-36.69-1.83-39.59,26.29h38.37s1.22-10.09,1.22-10.09Z"/>
    <polygon class="cls-13" points="729.86 690.23 768.27 689.5 767.88 692.72 729.51 692.72 729.86 690.23"/>
    <path class="cls-6" d="M1044.26,684.47v-16.2s36.69-1.83,39.59,26.29h-38.37l-1.22-10.09Z"/>
    <polygon class="cls-13" points="1083.49 693.07 1045.09 692.34 1045.48 695.56 1083.85 695.56 1083.49 693.07"/>
    <path class="cls-6" d="M749.3,706.94s38.06-89.89,60.08-88.97c0,0,71.31-34.87,200.52,0,0,0,21.66,4.13,47.23,86.68s-307.83,2.29-307.83,2.29Z"/>
    <path class="cls-17" d="M789.43,682.63s11.46-56.87,39.44-59.62,63.75-18.34,162.8,2.29c0,0,23.56,7.16,31.18,57.32h-233.43Z"/>
    <rect class="cls-6" x="725.91" y="697.31" width="360.46" height="120.15" rx="38.06" ry="38.06"/>
    <g>
      <path class="cls-13" d="M735.93,760.47v38.79c0,3.76,3.09,6.82,6.91,6.82h57.63c6.8,0,9.51-8.67,3.89-12.45l-57.63-38.79c-4.59-3.09-10.8,.15-10.8,5.63Z"/>
      <path class="cls-14" d="M740.37,764.85v31.32c0,3.04,2.46,5.5,5.5,5.5h45.91c5.41,0,7.57-7,3.1-10.05l-45.91-31.32c-3.65-2.49-8.6,.12-8.6,4.55Z"/>
    </g>
    <g>
      <path class="cls-13" d="M1077.16,757.07v38.79c0,3.76-3.09,6.82-6.91,6.82h-57.63c-6.8,0-9.51-8.67-3.89-12.45l57.63-38.79c4.59-3.09,10.8,.15,10.8,5.63Z"/>
      <path class="cls-14" d="M1072.72,761.45v31.32c0,3.04-2.46,5.5-5.5,5.5h-45.91c-5.41,0-7.57-7-3.1-10.05l45.91-31.32c3.65-2.49,8.6,.12,8.6,4.55Z"/>
    </g>
    <g>
      <circle class="cls-13" cx="768.83" cy="736.79" r="16.85"/>
      <circle class="cls-14" cx="768.83" cy="736.37" r="12.87"/>
    </g>
    <g>
      <ellipse class="cls-13" cx="804.56" cy="759.34" rx="9.86" ry="10.03"/>
      <ellipse class="cls-14" cx="804.56" cy="759.69" rx="7.53" ry="7.66"/>
    </g>
    <g>
      <ellipse class="cls-13" cx="1009.9" cy="757.31" rx="9.86" ry="10.03"/>
      <ellipse class="cls-14" cx="1009.9" cy="757.66" rx="7.53" ry="7.66"/>
    </g>
    <g>
      <circle class="cls-13" cx="1044.26" cy="735.14" r="16.85"/>
      <circle class="cls-14" cx="1044.26" cy="735.72" r="12.87"/>
    </g>
    <rect class="cls-8" x="839.65" y="743.47" width="132.54" height="3.81" rx="1.91" ry="1.91"/>
    <rect class="cls-8" x="838.88" y="756.84" width="132.54" height="3.81" rx="1.91" ry="1.91"/>
    <rect class="cls-8" x="838.88" y="783.58" width="132.54" height="3.81" rx="1.91" ry="1.91"/>
    <rect class="cls-8" x="838.88" y="770.21" width="132.54" height="3.81" rx="1.91" ry="1.91"/>
    <polygon class="cls-21" points="846.49 620.31 800.67 682.63 827.72 682.63 868.99 616.78 846.49 620.31"/>
    <path class="cls-21" d="M898.8,614.8c-14.11,22.61-28.23,45.22-42.34,67.83h44.18l40.61-65.55c-7.46-.86-15.4-1.54-23.78-1.92-6.49-.3-12.72-.4-18.67-.36Z"/>
    <polygon class="cls-21" points="964.94 620.34 925.63 682.63 948.56 682.63 982.85 623.53 964.94 620.34"/>
    <path class="cls-13" d="M795.34,694.56c8.2,9.73,21.28,22.61,40.36,31.41,0,0,139.18,0,139.18,0h0c3.47-1.44,7.17-3.26,10.98-5.56,13.19-7.99,21.6-18.25,26.63-25.85h-217.15Z"/>
  </g>
  <g id="Calque_3" data-name="Calque 3">
    <g>
      <polygon class="cls-20" points="434.3 862.46 480.66 862.46 466.25 313.36 449.34 313.36 434.3 862.46"/>
      <path class="cls-20" d="M465,470.44s62.02-4.13,73.3-141.93h9.4s.9,138.59-76.92,157.14"/>
      <path class="cls-20" d="M369.15,317.49h8.77s20.76,91.7,68.64,97.18v15.81s-64.26-2.76-77.41-112.99Z"/>
      <g>
        <g>
          <path class="cls-19" d="M384.81,138.41c1.55-9.4,6.87-34.48,26.94-55.12,6.83-7.02,25.66-26.4,53.88-25.49,26.96,.87,44.29,19.68,48.86,24.8,19.78,22.16,21.64,49.03,21.93,55.81,20.43-8.71,43.27-2.98,57.66,13.88,8.94,10.48,14.35,27.55,11.25,55.02,4.06-.72,24.56-3.89,42.6,11.02,17.44,14.42,26.03,40.33,19.88,63.41-7.51,28.15-35.65,47.16-65.61,41.32,0,0-28.19,71.64-94.6,11.02,0,0-29.09,49.61-87.21-4.13,0,0-45.6,53.07-86.32-6.88-3.24,2.48-24.29,17.99-50.12,10.33-4.59-1.36-24.17-7.17-33.83-28.25-8.74-19.08-5.16-41.51,5.01-57.18,16.45-25.35,44.45-24.23,46.36-24.11-1.59-2.83-16.8-30.95-5.01-61.32,9.36-24.12,32.47-41.21,56.38-39.27,16.01,1.3,27.27,10.72,31.95,15.16Z"/>
          <path class="cls-22" d="M247.67,261.61c3.35-1.01,7.49-2.65,11.91-5.39,6.86-4.25,11.54-9.38,14.43-13.13,0,0,28.82,52.62,85.83,7.71,0,0,45.11,51.21,85.2,5.22,0,0,58.89,58.73,94.6-6.04,29.82,5.51,57.77-13.32,65.51-41.44,6.78-24.63-2.93-52.76-21.89-66.12-13.36-9.4-34.53-13.75-46.84-4-5.76,4.56-5.71,9.14-14.35,15.72-8.47,6.44-16.72,8.26-23.32,9.75-6.59,1.48-17.29,2.97-30.53,.67,0,0-55.13,62.01-96.48,4.82,0,0-34.07,58.53-78.43,4.46,0,0-13.03,18.27-.5,40.32-6.28,2.96-14.77,7.88-23.34,16.07-11.79,11.27-18.35,23.56-21.79,31.38Z"/>
        </g>
        <path class="cls-5" d="M293.31,173.83c7.73-27.37,26.27-47.2,46.65-50.5,17.83-2.89,33,5.76,33,5.76,5.36,3.06,9.28,6.63,11.84,9.32,1.57-9.57,6.65-33.06,25.01-53.07,6.15-6.7,28.19-30.73,60.3-27.54,37.17,3.69,55.52,40.62,57.43,44.62,7.13,14.94,8.48,29.06,8.69,37.21-1.43,2.58-3.69,6.13-7.07,9.67-1.52,1.6-8.42,8.6-23.81,13.09-14.37,4.19-27.48,3.68-37.14,2.15-16.85,24.53-43.11,35.99-66.02,29.08-16.73-5.05-26.62-18.37-30.46-24.26,0,0-31.12,59.54-78.43,4.46Z"/>
      </g>
    </g>
    <g>
      <polygon class="cls-20" points="248.44 862.97 294.8 862.97 280.39 392.71 263.48 392.71 248.44 862.97"/>
      <path class="cls-20" d="M279.14,527.24s62.02-3.54,73.3-121.55h9.4s.9,118.69-76.92,134.58"/>
      <path class="cls-20" d="M183.29,396.25h8.77s20.76,78.53,68.64,83.22v13.54s-64.26-2.36-77.41-96.77Z"/>
      <g>
        <g>
          <path class="cls-12" d="M198.95,242.88c1.55-8.05,6.87-29.53,26.94-47.2,6.83-6.01,25.66-22.61,53.88-21.83,26.96,.74,44.29,16.86,48.86,21.24,19.78,18.98,21.64,41.99,21.93,47.79,20.43-7.46,43.27-2.55,57.66,11.88,8.94,8.97,14.35,23.59,11.25,47.12,4.06-.62,24.56-3.33,42.6,9.44,17.44,12.35,26.03,34.54,19.88,54.31-7.51,24.11-35.65,40.39-65.61,35.39,0,0-28.19,61.36-94.6,9.43,0,0-29.09,42.48-87.21-3.54,0,0-45.6,45.45-86.32-5.89-3.24,2.12-24.29,15.41-50.12,8.84-4.59-1.17-24.17-6.14-33.83-24.19-8.74-16.34-5.16-35.55,5.01-48.97,16.45-21.71,44.45-20.75,46.36-20.65-1.59-2.42-16.8-26.5-5.01-52.51,9.36-20.66,32.47-35.3,56.38-33.63,16.01,1.11,27.27,9.18,31.95,12.98Z"/>
          <path class="cls-7" d="M61.81,348.38c3.35-.87,7.49-2.27,11.91-4.62,6.86-3.64,11.54-8.03,14.43-11.24,0,0,28.82,45.07,85.83,6.6,0,0,45.11,43.86,85.2,4.47,0,0,58.89,50.3,94.6-5.17,29.82,4.72,57.77-11.41,65.51-35.49,6.78-21.09-2.93-45.19-21.89-56.62-13.36-8.05-34.53-11.78-46.84-3.43-5.76,3.91-5.71,7.83-14.35,13.46-8.47,5.52-16.72,7.08-23.32,8.35-6.59,1.27-17.29,2.54-30.53,.57,0,0-55.13,53.1-96.48,4.13,0,0-34.07,50.13-78.43,3.82,0,0-13.03,15.65-.5,34.53-6.28,2.53-14.77,6.75-23.34,13.77-11.79,9.65-18.35,20.18-21.79,26.88Z"/>
        </g>
        <path class="cls-15" d="M107.45,273.21c7.73-23.44,26.27-40.42,46.65-43.25,17.83-2.47,33,4.93,33,4.93,5.36,2.62,9.28,5.68,11.84,7.98,1.57-8.2,6.65-28.31,25.01-45.45,6.15-5.74,28.19-26.31,60.3-23.58,37.17,3.16,55.52,34.79,57.43,38.21,7.13,12.8,8.48,24.88,8.69,31.87-1.43,2.21-3.69,5.25-7.07,8.28-1.52,1.37-8.42,7.36-23.81,11.21-14.37,3.59-27.48,3.15-37.14,1.84-16.85,21.01-43.11,30.82-66.02,24.91-16.73-4.32-26.62-15.73-30.46-20.78,0,0-31.12,50.99-78.43,3.82Z"/>
      </g>
    </g>
    <g>
      <polygon class="cls-20" points="541.87 861.47 571.39 861.47 562.22 525.5 551.45 525.5 541.87 861.47"/>
      <path class="cls-20" d="M561.42,621.61s39.49-2.53,46.67-86.84h5.98s.57,84.8-48.98,96.14"/>
      <path class="cls-20" d="M500.39,528.03h5.58s13.22,56.1,43.71,59.46v9.68s-40.92-1.69-49.29-69.13Z"/>
      <g>
        <g>
          <path class="cls-23" d="M510.36,418.46c.99-5.75,4.38-21.09,17.15-33.72,4.35-4.3,16.34-16.15,34.31-15.6,17.17,.53,28.2,12.04,31.11,15.18,12.6,13.56,13.78,30,13.96,34.14,13.01-5.33,27.55-1.82,36.72,8.49,5.69,6.41,9.13,16.85,7.16,33.66,2.58-.44,15.64-2.38,27.13,6.74,11.11,8.82,16.58,24.68,12.66,38.8-4.78,17.23-22.7,28.86-41.78,25.28,0,0-17.95,43.84-60.23,6.74,0,0-18.52,30.35-55.53-2.53,0,0-29.03,32.47-54.96-4.21-2.06,1.51-15.46,11.01-31.91,6.32-2.92-.83-15.39-4.39-21.54-17.28-5.57-11.67-3.28-25.4,3.19-34.99,10.48-15.51,28.31-14.82,29.52-14.75-1.01-1.73-10.7-18.93-3.19-37.52,5.96-14.76,20.68-25.22,35.9-24.03,10.19,.8,17.37,6.56,20.34,9.27Z"/>
          <path class="cls-16" d="M423.04,493.84c2.13-.62,4.77-1.62,7.59-3.3,4.37-2.6,7.35-5.74,9.19-8.03,0,0,18.35,32.2,54.65,4.72,0,0,28.72,31.33,54.25,3.19,0,0,37.5,35.93,60.23-3.69,18.99,3.37,36.78-8.15,41.71-25.36,4.32-15.07-1.86-32.28-13.94-40.45-8.5-5.75-21.99-8.41-29.82-2.45-3.67,2.79-3.64,5.59-9.14,9.62-5.39,3.94-10.64,5.06-14.85,5.96-4.2,.91-11.01,1.82-19.44,.41,0,0-35.1,37.94-61.43,2.95,0,0-21.7,35.81-49.94,2.73,0,0-8.3,11.18-.32,24.67-4,1.81-9.41,4.82-14.86,9.83-7.51,6.89-11.68,14.42-13.88,19.2Z"/>
        </g>
        <path class="cls-3" d="M452.1,440.13c4.92-16.75,16.73-28.88,29.71-30.9,11.35-1.77,21.01,3.53,21.01,3.53,3.41,1.87,5.91,4.05,7.54,5.7,1-5.86,4.24-20.23,15.92-32.47,3.92-4.1,17.95-18.8,38.4-16.85,23.67,2.26,35.35,24.85,36.57,27.3,4.54,9.14,5.4,17.78,5.53,22.77-.91,1.58-2.35,3.75-4.5,5.92-.97,.98-5.36,5.26-15.16,8.01-9.15,2.57-17.5,2.25-23.65,1.32-10.73,15.01-27.45,22.02-42.04,17.79-10.66-3.09-16.95-11.24-19.4-14.84,0,0-19.82,36.43-49.94,2.73Z"/>
      </g>
    </g>
  </g>
</svg>