<?xml version="1.0" encoding="UTF-8"?>
<svg id="Calque_4" data-name="Calque 4" xmlns="http://www.w3.org/2000/svg" viewBox="0 0 37.45 37.61">
  <defs>
    <style>
      .cls-1 {
        fill: #ec671b;
      }
    </style>
  </defs>
  <path class="cls-1" d="M30.59,0c2.22,.04,6.95,4.67,6.86,6.36-.04,.75-.37,1.66-.89,2.18-8.06,8.17-16.16,16.28-24.27,24.4-.31,.32-.74,.56-1.16,.73-3.23,1.3-6.47,2.6-9.72,3.85-.42,.16-.94,.06-1.42,.08,.04-.43-.02-.9,.13-1.29,1.25-3.26,2.53-6.52,3.85-9.75,.24-.6,.67-1.16,1.13-1.62C15.04,14.92,27.1,2.89,28.64,1.32c.15-.16,.73-.77,1.68-1.21,.11-.05,.21-.09,.27-.11ZM9.17,29.45c7.08-7.11,14-14.06,21.01-21.09-.33-.31-.72-.68-.99-.94-7.05,7.07-13.98,14.03-21.02,21.1,.3,.28,.67,.62,1.01,.94ZM27,5.15c-7.04,7.07-13.98,14.03-21.07,21.15,.31,.31,.68,.68,.97,.97,7.09-7.11,14.03-14.06,21.04-21.08-.29-.32-.63-.69-.94-1.04Zm4.39,4.42c-7.06,7.08-13.99,14.04-20.97,21.05,.31,.37,.65,.78,.95,1.15,7.13-7.15,14.06-14.11,21.05-21.12-.31-.33-.65-.69-1.03-1.08Zm2.21,.03c.1-.08,.23-.17,.34-.28q2.9-2.8,.03-5.69c-3.03-3.05-3.14-3.05-5.97,.25-.03,.03-.02,.1,0,0,1.87,1.91,3.7,3.76,5.61,5.7ZM5.06,27.47c-.75,1.91-1.49,3.65-2.13,5.44-.33,.92,.92,2.16,1.83,1.83,1.81-.67,3.59-1.41,5.39-2.13-1.73-1.74-3.34-3.37-5.09-5.14Z"/>
  <polygon class="cls-1" points="5.27 26.11 11.38 32.64 33.17 10.75 26.94 4.21 5.27 26.11"/>
</svg>