<?xml version="1.0" encoding="UTF-8"?>
<svg id="Calque_1" data-name="Calque 1" xmlns="http://www.w3.org/2000/svg" viewBox="0 0 49.68 49.91">
  <defs>
    <style>
      .cls-1 {
        fill: #ec671b;
      }
    </style>
  </defs>
  <path class="cls-1" d="M19.87,2.87v14.22c0,1.58-1.28,2.87-2.87,2.87H2.87c-1.58,0-2.87,1.28-2.87,2.87v4.13c0,1.58,1.28,2.87,2.87,2.87h14.14c1.58,0,2.87,1.28,2.87,2.87v14.37c0,1.58,1.28,2.87,2.87,2.87h4.39c1.6,0,2.89-1.31,2.87-2.91l-.22-14.5c-.02-1.6,1.27-2.92,2.88-2.91l14.15,.05c1.59,0,2.88-1.28,2.88-2.87v-4c0-1.57-1.26-2.85-2.83-2.87l-14.05-.16c-1.57-.02-2.83-1.3-2.83-2.87V2.87c0-1.58-1.28-2.87-2.87-2.87h-4.36c-1.58,0-2.87,1.28-2.87,2.87Z"/>
</svg>