<?xml version="1.0" encoding="UTF-8"?>
<svg xmlns="http://www.w3.org/2000/svg" xmlns:xlink="http://www.w3.org/1999/xlink" viewBox="0 0 1920.17 848.29">
  <defs>
    <style>
      .cls-1 {
        fill: #449e84;
      }

      .cls-2 {
        fill: #fff;
      }

      .cls-3 {
        fill: #64a1c0;
      }

      .cls-4 {
        fill: #f29587;
      }

      .cls-5 {
        fill: #8cbdd1;
      }

      .cls-6 {
        fill: #004a50;
      }

      .cls-7 {
        fill: #50b89c;
      }

      .cls-8 {
        fill: #f0b764;
      }

      .cls-9 {
        fill: #666e7b;
      }

      .cls-10 {
        fill: #014954;
      }

      .cls-11 {
        fill: #f7fcfd;
      }

      .cls-12 {
        fill: #7cb448;
      }

      .cls-13 {
        fill: #054754;
      }

      .cls-14 {
        fill: #fbfbfb;
      }

      .cls-15 {
        fill: #d1a1ca;
      }

      .cls-16 {
        fill: #c184b8;
      }

      .cls-17 {
        fill: #67a030;
      }

      .cls-18 {
        fill: url(#Dégradé_sans_nom_3);
      }

      .cls-19 {
        fill: #9fc64c;
      }

      .cls-20 {
        fill: #9dcfe2;
      }

      .cls-21 {
        fill: #86be58;
      }

      .cls-22 {
        fill: #e97764;
      }

      .cls-23 {
        fill: #db9525;
      }

      .cls-24 {
        fill: #dfb9d8;
      }

      .cls-25 {
        fill: #a23418;
      }

      .cls-26 {
        fill: #e5ac59;
      }

      .cls-27 {
        fill: #76c5b9;
      }

      .cls-28 {
        fill: #cd533a;
      }
    </style>
    <linearGradient id="Dégradé_sans_nom_3" data-name="Dégradé sans nom 3" x1="966.32" y1="871.54" x2="955.24" y2="87.12" gradientUnits="userSpaceOnUse">
      <stop offset="0" stop-color="#e4e4e4"/>
      <stop offset=".37" stop-color="#c8e4f7"/>
    </linearGradient>
  </defs>
  <g id="Calque_1" data-name="Calque 1">
    <rect class="cls-18" width="1920" height="848.29"/>
    <path class="cls-19" d="M0,531.47H1919.84c.05,105.61,.11,211.22,.16,316.82H0v-316.82Z"/>
    <polygon class="cls-9" points="0 649.52 1919.84 649.52 1920 848.29 0 848.29 0 649.52"/>
    <path class="cls-19" d="M0,764.01H1919.84c.05,28.09,.11,56.19,.16,84.28H0v-84.28Z"/>
    <path class="cls-11" d="M0,764.01v12.38c639.95-.06,1279.89-.12,1919.84-.18v-12.2H0Z"/>
    <path class="cls-11" d="M.33,637.14v12.38c639.95-.06,1279.89-.12,1919.84-.18v-12.2H.33Z"/>
    <path class="cls-11" d="M926.37,689.88v12.38c55.82-.06,111.64-.12,167.46-.18v-12.2h-167.46Z"/>
    <path class="cls-11" d="M642.71,689.88v12.38c55.82-.06,111.64-.12,167.46-.18v-12.2h-167.46Z"/>
    <path class="cls-11" d="M336.37,689.88v12.38c55.82-.06,111.64-.12,167.46-.18v-12.2h-167.46Z"/>
    <path class="cls-11" d="M45.17,689.88v12.38c55.82-.06,111.64-.12,167.46-.18v-12.2H45.17Z"/>
    <path class="cls-11" d="M1213.2,689.88v12.38c55.82-.06,111.64-.12,167.46-.18v-12.2h-167.46Z"/>
    <path class="cls-11" d="M1506.71,689.88v12.38c55.82-.06,111.64-.12,167.46-.18v-12.2h-167.46Z"/>
    <path class="cls-11" d="M1787.37,689.88v12.38c44.26-.06,88.53-.12,132.79-.18v-12.2h-132.79Z"/>
  </g>
  <g id="voiture">
    <path class="cls-7" d="M722.85,691.7s-38.52-57.46,73.61-94.35c144.13-47.43,553.86-55.09,589.53,44.15,2.76,7.69,13.5,44.46-2.17,53.96-5.79,3.51-12.41,1.61-33.32,1.34-16.34-.21-29.61,.74-38.11,1.55-1.26-4.13-5.95-17.45-20.94-27.08-16.69-10.73-34.55-9.43-39.6-8.99-6.1,.53-22.47,2.17-35.3,14.37-11.78,11.19-13.25,24.3-13.53,28.36h-335.01c-.04-4.33-.8-17.58-11.92-29.43-13.03-13.88-31.03-15.98-36.65-16.56-3.43-.35-19.13-1.69-35.81,6.34-18.33,8.83-25.7,23.14-27.75,27.55-11.01-.4-22.01-.81-33.02-1.21Z"/>
    <g>
      <ellipse class="cls-6" cx="809.41" cy="706.21" rx="49.22" ry="42.47"/>
      <ellipse class="cls-14" cx="809.41" cy="706.21" rx="17.12" ry="15.05"/>
    </g>
    <ellipse class="cls-6" cx="1256.93" cy="708.97" rx="49.22" ry="42.47"/>
    <ellipse class="cls-14" cx="1255.71" cy="710.51" rx="17.12" ry="15.05"/>
    <path class="cls-7" d="M1144.89,623.68h-295.34c-23.85-.27-52.26,2.19-77.5,12.91-39.44,16.75-49.32,44.4-54.05,43.5-5.34-1.01,3.94-36.92,53.14-161.79,3.95-6.28,10.2-14.43,19.87-22.17,18.97-15.19,39.94-19.87,50.14-21.5,96-.09,192-.18,288-.27,10.85,.44,30.84,2.51,52.59,12.63,21.85,10.18,35.07,23.64,41.58,31.31,43.34,38.01,86.68,76.02,130.01,114.03-14.5-6.66-77.14-33.86-152.98-23.36-23,3.19-41.58,9.06-55.45,14.7Z"/>
    <rect class="cls-27" x="789.77" y="620.2" width="169.22" height="20.84" rx="8.92" ry="8.92"/>
    <rect class="cls-27" x="981.7" y="620.2" width="228.61" height="20.84" rx="8.92" ry="8.92"/>
    <rect class="cls-10" x="866.36" y="708.79" width="334.78" height="9.68" rx="4.14" ry="4.14"/>
    <rect class="cls-10" x="716.46" y="695.86" width="42.96" height="23.12" rx="9.89" ry="9.89"/>
    <rect class="cls-10" x="1308.67" y="702.99" width="83.46" height="21.64" rx="9.26" ry="9.26"/>
    <rect class="cls-2" x="1328.78" y="641.03" width="20.79" height="46.77" rx="10.39" ry="10.39"/>
    <rect class="cls-13" x="989.49" y="641.03" width="36.92" height="10.89" rx="4.66" ry="4.66"/>
    <path class="cls-6" d="M1034.94,554.48l38.41-51.67c2.12-2.85,5.73-4.57,9.6-4.57h75.02c8.7,0,14.23,8.18,10.08,14.9l-31.95,51.67c-2.01,3.25-5.88,5.27-10.08,5.27h-81.48c-9.12,0-14.59-8.9-9.6-15.61Z"/>
    <path class="cls-6" d="M839.74,549.16l33.29-44.79c2.84-3.82,7.69-6.13,12.88-6.13h66.32c11.67,0,19.09,10.98,13.52,19.99l-27.69,44.79c-2.69,4.36-7.88,7.07-13.52,7.07h-71.92c-12.23,0-19.57-11.93-12.88-20.93Z"/>
    <path class="cls-2" d="M1389.08,652.14h-22.97v-4.29c7.34-.03,14.67-.07,22.01-.1,.32,1.46,.64,2.93,.96,4.39Z"/>
    <path class="cls-2" d="M1390.78,660.25h-24.67v-4.54c7.96,.03,15.93,.07,23.89,.1,.26,1.48,.52,2.96,.77,4.44Z"/>
    <rect class="cls-2" x="1366.11" y="673.76" width="26.03" height="5.08"/>
    <path class="cls-2" d="M1392.14,670.41h-26.03v-5.08h25.42l.6,5.08Z"/>
    <path class="cls-2" d="M1390.2,687.26h-24.08v-4.53h25.5c-.47,1.51-.94,3.02-1.42,4.53Z"/>
    <path class="cls-7" d="M1032.07,700.57c27.44-14.99,64.62-32.08,110.98-45.16,37.73-10.65,71.94-15.94,99.97-18.55"/>
    <path class="cls-1" d="M1023.36,705c-1.39-4.54,62.35-21.33,151.8-44.75,65.23-17.08,88.41-22.34,108.23-10.48,25.15,15.04,29.49,48.4,28.99,48.58-.36,.14-4.37-16.66-20.94-27.08-12.91-8.12-27.31-8.52-32.35-8.6-6.34-.1-21.33-.35-33.59,7.96-16.63,11.27-22.49,34.37-22.49,34.37,0,0-5.39,0-6.06,0-9.24,0-21.55-.2-21.55-.2-14.99-.24-37.45,.13-79.34,.2-34.88,.05-29.79-.19-41.62,0-25.7,.41-30.69,1.25-31.07,0Z"/>
  </g>
  <g id="nuage">
    <path class="cls-2" d="M1280.01,251.04s1.47-23.31,36.66-14.57c-.09-.81-1.21-12.94,11.77-18.64,7.06-3.1,15.42-3.04,19.23-3.02,3.36,.02,10.22,.07,16.15,2.32,9.27,3.52,13.91,11.53,12.98,20.25,10.6-3.7,22.53-2.03,28.8,2.77,3.11,2.38,4.61,6.14,2.87,11.98,16.3-1.37,28.92,3.46,30.68,9.13,1.21,3.88-2.71,8.04-6.76,10.44-7.95,4.71-19.29,4.38-23.18,4.28-19.95-.49-69.48-.23-136.82,0-.56,.07-11.35,1.38-17.96-3.41-6.21-4.5-4.02-10.98-.88-14.55,4.77-5.42,15.4-8.29,26.46-6.99Z"/>
    <path class="cls-2" d="M1668.6,97.97s1.47-23.31,36.66-14.57c-.09-.81-1.21-12.94,11.77-18.64,7.06-3.1,15.42-3.04,19.23-3.02,3.36,.02,10.22,.07,16.15,2.32,9.27,3.52,13.91,11.53,12.98,20.25,10.6-3.7,22.53-2.03,28.8,2.77,3.11,2.38,4.61,6.14,2.87,11.98,16.3-1.37,28.92,3.46,30.68,9.13,1.21,3.88-2.71,8.04-6.76,10.44-7.95,4.71-19.29,4.38-23.18,4.28-19.95-.49-69.48-.23-136.82,0-.56,.07-11.35,1.38-17.96-3.41-6.21-4.5-4.02-10.98-.88-14.55,4.77-5.42,15.4-8.29,26.46-6.99Z"/>
    <path class="cls-2" d="M745.26,226.67s1.47-22.16,36.66-13.85c-.09-.77-1.21-12.3,11.77-17.72,7.06-2.95,15.42-2.89,19.23-2.87,3.36,.02,10.22,.06,16.15,2.2,9.27,3.34,13.91,10.96,12.98,19.26,10.6-3.52,22.53-1.93,28.8,2.63,3.11,2.26,4.61,5.84,2.87,11.39,16.3-1.3,28.92,3.29,30.68,8.68,1.21,3.69-2.71,7.64-6.76,9.93-7.95,4.48-19.29,4.16-23.18,4.07-19.95-.46-69.48-.22-136.82,0-.56,.07-11.35,1.31-17.96-3.24-6.21-4.28-4.02-10.43-.88-13.83,4.77-5.15,15.4-7.89,26.46-6.65Z"/>
    <path class="cls-2" d="M189.4,203.71s1.47-23.31,36.66-14.57c-.09-.81-1.21-12.94,11.77-18.64,7.06-3.1,15.42-3.04,19.23-3.02,3.36,.02,10.22,.07,16.15,2.32,9.27,3.52,13.91,11.53,12.98,20.25,10.6-3.7,22.53-2.03,28.8,2.77,3.11,2.38,4.61,6.14,2.87,11.98,16.3-1.37,28.92,3.46,30.68,9.13,1.21,3.88-2.71,8.04-6.76,10.44-7.95,4.71-19.29,4.38-23.18,4.28-19.95-.49-69.48-.23-136.82,0-.56,.07-11.35,1.38-17.96-3.41-6.21-4.5-4.02-10.98-.88-14.55,4.77-5.42,15.4-8.29,26.46-6.99Z"/>
    <path class="cls-2" d="M55.14,110.88s1.47-23.31,36.66-14.57c-.09-.81-1.21-12.94,11.77-18.64,7.06-3.1,15.42-3.04,19.23-3.02,3.36,.02,10.22,.07,16.15,2.32,9.27,3.52,13.91,11.53,12.98,20.25,10.6-3.7,22.53-2.03,28.8,2.77,3.11,2.38,4.61,6.14,2.87,11.98,16.3-1.37,28.92,3.46,30.68,9.13,1.21,3.88-2.71,8.04-6.76,10.44-7.95,4.71-19.29,4.38-23.18,4.28-19.95-.49-69.48-.23-136.82,0-.56,.07-11.35,1.38-17.96-3.41-6.21-4.5-4.02-10.98-.88-14.55,4.77-5.42,15.4-8.29,26.46-6.99Z"/>
    <path class="cls-2" d="M1374.47,398.57s1.47-23.31,36.66-14.57c-.09-.81-1.21-12.94,11.77-18.64,7.06-3.1,15.42-3.04,19.23-3.02,3.36,.02,10.22,.07,16.15,2.32,9.27,3.52,13.91,11.53,12.98,20.25,10.6-3.7,22.53-2.03,28.8,2.77,3.11,2.38,4.61,6.14,2.87,11.98,16.3-1.37,28.92,3.46,30.68,9.13,1.21,3.88-2.71,8.04-6.76,10.44-7.95,4.71-19.29,4.38-23.18,4.28-19.95-.49-69.48-.23-136.82,0-.56,.07-11.35,1.38-17.96-3.41-6.21-4.5-4.02-10.98-.88-14.55,4.77-5.42,15.4-8.29,26.46-6.99Z"/>
    <path class="cls-2" d="M819.92,67.27s1.47-23.31,36.66-14.57c-.09-.81-1.21-12.94,11.77-18.64,7.06-3.1,15.42-3.04,19.23-3.02,3.36,.02,10.22,.07,16.15,2.32,9.27,3.52,13.91,11.53,12.98,20.25,10.6-3.7,22.53-2.03,28.8,2.77,3.11,2.38,4.61,6.14,2.87,11.98,16.3-1.37,28.92,3.46,30.68,9.13,1.21,3.88-2.71,8.04-6.76,10.44-7.95,4.71-19.29,4.38-23.18,4.28-19.95-.49-69.48-.23-136.82,0-.56,.07-11.35,1.38-17.96-3.41-6.21-4.5-4.02-10.98-.88-14.55,4.77-5.42,15.4-8.29,26.46-6.99Z"/>
    <path class="cls-2" d="M1749.49,347.09s1.47-23.31,36.66-14.57c-.09-.81-1.21-12.94,11.77-18.64,7.06-3.1,15.42-3.04,19.23-3.02,3.36,.02,10.22,.07,16.15,2.32,9.27,3.52,13.91,11.53,12.98,20.25,10.6-3.7,22.53-2.03,28.8,2.77,3.11,2.38,4.61,6.14,2.87,11.98,16.3-1.37,28.92,3.46,30.68,9.13,1.21,3.88-2.71,8.04-6.76,10.44-7.95,4.71-19.29,4.38-23.18,4.28-19.95-.49-69.48-.23-136.82,0-.56,.07-11.35,1.38-17.96-3.41-6.21-4.5-4.02-10.98-.88-14.55,4.77-5.42,15.4-8.29,26.46-6.99Z"/>
    <path class="cls-2" d="M189.4,436.26s1.47-23.31,36.66-14.57c-.09-.81-1.21-12.94,11.77-18.64,7.06-3.1,15.42-3.04,19.23-3.02,3.36,.02,10.22,.07,16.15,2.32,9.27,3.52,13.91,11.53,12.98,20.25,10.6-3.7,22.53-2.03,28.8,2.77,3.11,2.38,4.61,6.14,2.87,11.98,16.3-1.37,28.92,3.46,30.68,9.13,1.21,3.88-2.71,8.04-6.76,10.44-7.95,4.71-19.29,4.38-23.18,4.28-19.95-.49-69.48-.23-136.82,0-.56,.07-11.35,1.38-17.96-3.41-6.21-4.5-4.02-10.98-.88-14.55,4.77-5.42,15.4-8.29,26.46-6.99Z"/>
    <path class="cls-2" d="M1069.4,141.58s1.47-23.31,36.66-14.57c-.09-.81-1.21-12.94,11.77-18.64,7.06-3.1,15.42-3.04,19.23-3.02,3.36,.02,10.22,.07,16.15,2.32,9.27,3.52,13.91,11.53,12.98,20.25,10.6-3.7,22.53-2.03,28.8,2.77,3.11,2.38,4.61,6.14,2.87,11.98,16.3-1.37,28.92,3.46,30.68,9.13,1.21,3.88-2.71,8.04-6.76,10.44-7.95,4.71-19.29,4.38-23.18,4.28-19.95-.49-69.48-.23-136.82,0-.56,.07-11.35,1.38-17.96-3.41-6.21-4.5-4.02-10.98-.88-14.55,4.77-5.42,15.4-8.29,26.46-6.99Z"/>
    <path class="cls-2" d="M471.25,118.22s1.47-23.31,36.66-14.57c-.09-.81-1.21-12.94,11.77-18.64,7.06-3.1,15.42-3.04,19.23-3.02,3.36,.02,10.22,.07,16.15,2.32,9.27,3.52,13.91,11.53,12.98,20.25,10.6-3.7,22.53-2.03,28.8,2.77,3.11,2.38,4.61,6.14,2.87,11.98,16.3-1.37,28.92,3.46,30.68,9.13,1.21,3.88-2.71,8.04-6.76,10.44-7.95,4.71-19.29,4.38-23.18,4.28-19.95-.49-69.48-.23-136.82,0-.56,.07-11.35,1.38-17.96-3.41-6.21-4.5-4.02-10.98-.88-14.55,4.77-5.42,15.4-8.29,26.46-6.99Z"/>
  </g>
  <g id="arbres">
    <g>
      <polygon class="cls-25" points="114.97 611.26 134.16 611.26 128.2 425.6 121.2 425.6 114.97 611.26"/>
      <path class="cls-25" d="M127.68,478.71s25.67-1.4,30.34-47.99h3.89s.37,46.86-31.84,53.13"/>
      <path class="cls-25" d="M88,427h3.63s8.59,31,28.41,32.86v5.35s-26.6-.93-32.04-38.2Z"/>
      <g>
        <g>
          <path class="cls-16" d="M94.49,366.45c.64-3.18,2.85-11.66,11.15-18.64,2.83-2.37,10.62-8.93,22.3-8.62,11.16,.29,18.33,6.65,20.23,8.39,8.19,7.49,8.96,16.58,9.08,18.87,8.46-2.95,17.91-1.01,23.87,4.69,3.7,3.54,5.94,9.31,4.66,18.6,1.68-.24,10.17-1.31,17.63,3.73,7.22,4.88,10.78,13.64,8.23,21.44-3.11,9.52-14.76,15.95-27.16,13.97,0,0-11.67,24.22-39.16,3.72,0,0-12.04,16.77-36.1-1.4,0,0-18.87,17.94-35.73-2.33-1.34,.84-10.05,6.08-20.75,3.49-1.9-.46-10.01-2.42-14-9.55-3.62-6.45-2.14-14.04,2.07-19.33,6.81-8.57,18.4-8.19,19.19-8.15-.66-.96-6.95-10.46-2.07-20.73,3.88-8.16,13.44-13.94,23.34-13.28,6.63,.44,11.29,3.62,13.23,5.12Z"/>
          <path class="cls-15" d="M37.72,408.1c1.38-.34,3.1-.9,4.93-1.82,2.84-1.44,4.78-3.17,5.97-4.44,0,0,11.93,17.79,35.53,2.61,0,0,18.67,17.32,35.27,1.76,0,0,24.38,19.86,39.16-2.04,12.34,1.86,23.91-4.5,27.12-14.01,2.81-8.33-1.21-17.84-9.06-22.35-5.53-3.18-14.29-4.65-19.39-1.35-2.38,1.54-2.36,3.09-5.94,5.31-3.51,2.18-6.92,2.79-9.65,3.3-2.73,.5-7.16,1-12.64,.23,0,0-22.82,20.97-39.94,1.63,0,0-14.1,19.79-32.47,1.51,0,0-5.4,6.18-.21,13.63-2.6,1-6.11,2.67-9.66,5.43-4.88,3.81-7.6,7.97-9.02,10.61Z"/>
        </g>
        <path class="cls-24" d="M56.61,378.42c3.2-9.26,10.88-15.96,19.31-17.07,7.38-.98,13.66,1.95,13.66,1.95,2.22,1.03,3.84,2.24,4.9,3.15,.65-3.24,2.75-11.18,10.35-17.94,2.55-2.27,11.67-10.39,24.96-9.31,15.39,1.25,22.98,13.74,23.77,15.09,2.95,5.05,3.51,9.82,3.6,12.58-.59,.87-1.53,2.07-2.93,3.27-.63,.54-3.48,2.91-9.85,4.43-5.95,1.42-11.38,1.24-15.38,.73-6.98,8.29-17.85,12.17-27.33,9.83-6.93-1.71-11.02-6.21-12.61-8.2,0,0-12.88,20.13-32.47,1.51Z"/>
      </g>
    </g>
    <g>
      <polygon class="cls-25" points="1763.07 584.3 1779.34 584.3 1774.28 424.83 1768.35 424.83 1763.07 584.3"/>
      <path class="cls-25" d="M1773.84,470.45s21.77-1.2,25.73-41.22h3.3s.32,40.25-27,45.64"/>
      <path class="cls-25" d="M1740.2,426.03h3.08s7.29,26.63,24.1,28.22v4.59s-22.56-.8-27.17-32.81Z"/>
      <g>
        <g>
          <path class="cls-16" d="M1745.7,374.03c.54-2.73,2.41-10.01,9.46-16.01,2.4-2.04,9.01-7.67,18.91-7.4,9.46,.25,15.55,5.72,17.15,7.2,6.94,6.44,7.6,14.24,7.7,16.21,7.17-2.53,15.19-.87,20.24,4.03,3.14,3.04,5.04,8,3.95,15.98,1.42-.21,8.62-1.13,14.95,3.2,6.12,4.19,9.14,11.71,6.98,18.42-2.64,8.18-12.51,13.7-23.03,12,0,0-9.9,20.81-33.21,3.2,0,0-10.21,14.41-30.61-1.2,0,0-16.01,15.41-30.3-2-1.14,.72-8.52,5.22-17.59,3-1.61-.4-8.48-2.08-11.87-8.2-3.07-5.54-1.81-12.06,1.76-16.61,5.78-7.36,15.6-7.04,16.27-7-.56-.82-5.9-8.99-1.76-17.81,3.29-7.01,11.4-11.97,19.79-11.4,5.62,.38,9.57,3.11,11.22,4.4Z"/>
          <path class="cls-15" d="M1697.56,409.8c1.17-.29,2.63-.77,4.18-1.57,2.41-1.23,4.05-2.72,5.06-3.81,0,0,10.12,15.28,30.13,2.24,0,0,15.83,14.87,29.91,1.51,0,0,20.67,17.06,33.21-1.75,10.47,1.6,20.28-3.87,23-12.04,2.38-7.15-1.03-15.32-7.69-19.2-4.69-2.73-12.12-3.99-16.44-1.16-2.02,1.32-2.01,2.66-5.04,4.56-2.97,1.87-5.87,2.4-8.18,2.83-2.31,.43-6.07,.86-10.72,.19,0,0-19.35,18.01-33.87,1.4,0,0-11.96,17-27.53,1.3,0,0-4.57,5.31-.18,11.71-2.2,.86-5.18,2.29-8.19,4.67-4.14,3.27-6.44,6.84-7.65,9.11Z"/>
        </g>
        <path class="cls-24" d="M1713.58,384.31c2.71-7.95,9.22-13.71,16.38-14.67,6.26-.84,11.58,1.67,11.58,1.67,1.88,.89,3.26,1.92,4.16,2.71,.55-2.78,2.34-9.6,8.78-15.41,2.16-1.95,9.89-8.92,21.17-8,13.05,1.07,19.49,11.8,20.16,12.96,2.5,4.34,2.98,8.44,3.05,10.81-.5,.75-1.3,1.78-2.48,2.81-.53,.46-2.95,2.5-8.36,3.8-5.04,1.22-9.65,1.07-13.04,.62-5.92,7.12-15.13,10.45-23.17,8.45-5.87-1.47-9.34-5.34-10.69-7.05,0,0-10.92,17.29-27.53,1.3Z"/>
      </g>
    </g>
    <g>
      <polygon class="cls-25" points="711.65 625.23 734.24 625.23 727.22 330.98 718.98 330.98 711.65 625.23"/>
      <path class="cls-25" d="M726.61,415.16s30.22-2.22,35.71-76.06h4.58s.44,74.27-37.48,84.21"/>
      <path class="cls-25" d="M679.91,333.19h4.27s10.12,49.14,33.44,52.07v8.47s-31.31-1.48-37.72-60.55Z"/>
      <g>
        <g>
          <path class="cls-28" d="M687.54,237.23c.75-5.04,3.35-18.48,13.12-29.54,3.33-3.76,12.5-14.15,26.25-13.66,13.14,.47,21.58,10.55,23.81,13.29,9.64,11.87,10.54,26.27,10.68,29.91,9.95-4.67,21.08-1.6,28.1,7.44,4.36,5.61,6.99,14.76,5.48,29.48,1.98-.39,11.97-2.08,20.76,5.91,8.5,7.73,12.68,21.61,9.68,33.98-3.66,15.09-17.37,25.27-31.97,22.14,0,0-13.74,38.39-46.09,5.9,0,0-14.17,26.58-42.49-2.22,0,0-22.22,28.44-42.06-3.69-1.58,1.33-11.83,9.64-24.42,5.53-2.24-.73-11.78-3.84-16.48-15.14-4.26-10.22-2.51-22.25,2.44-30.64,8.02-13.59,21.66-12.98,22.59-12.92-.77-1.52-8.19-16.58-2.44-32.86,4.56-12.93,15.82-22.09,27.47-21.04,7.8,.7,13.29,5.74,15.57,8.12Z"/>
          <path class="cls-22" d="M620.73,303.24c1.63-.54,3.65-1.42,5.8-2.89,3.34-2.28,5.62-5.03,7.03-7.03,0,0,14.04,28.2,41.82,4.13,0,0,21.98,27.44,41.51,2.8,0,0,28.69,31.47,46.09-3.23,14.53,2.95,28.14-7.14,31.92-22.21,3.3-13.2-1.43-28.27-10.67-35.43-6.51-5.04-16.82-7.37-22.82-2.15-2.81,2.44-2.78,4.9-6.99,8.42-4.13,3.45-8.14,4.43-11.36,5.22-3.21,.79-8.42,1.59-14.88,.36,0,0-26.86,33.23-47.01,2.58,0,0-16.6,31.37-38.21,2.39,0,0-6.35,9.79-.25,21.61-3.06,1.58-7.2,4.23-11.37,8.61-5.75,6.04-8.94,12.63-10.62,16.82Z"/>
        </g>
        <path class="cls-4" d="M642.96,256.21c3.76-14.67,12.8-25.29,22.73-27.06,8.69-1.55,16.08,3.09,16.08,3.09,2.61,1.64,4.52,3.55,5.77,4.99,.76-5.13,3.24-17.72,12.18-28.44,3-3.59,13.73-16.46,29.38-14.76,18.11,1.98,27.05,21.77,27.98,23.91,3.47,8.01,4.13,15.57,4.23,19.94-.7,1.38-1.8,3.28-3.44,5.18-.74,.86-4.1,4.61-11.6,7.01-7,2.25-13.39,1.97-18.1,1.15-8.21,13.15-21.01,19.29-32.16,15.59-8.15-2.7-12.97-9.84-14.84-13,0,0-15.16,31.9-38.21,2.39Z"/>
      </g>
    </g>
    <g>
      <polygon class="cls-25" points="584.94 614.38 607.15 614.38 600.25 368.84 592.15 368.84 584.94 614.38"/>
      <path class="cls-25" d="M599.65,439.08s29.71-1.85,35.11-63.47h4.5s.43,61.97-36.85,70.27"/>
      <path class="cls-25" d="M553.73,370.68h4.2s9.95,41,32.88,43.45v7.07s-30.78-1.23-37.08-50.53Z"/>
      <g>
        <g>
          <path class="cls-17" d="M561.24,290.6c.74-4.21,3.29-15.42,12.9-24.65,3.27-3.14,12.29-11.81,25.81-11.4,12.91,.39,21.22,8.8,23.41,11.09,9.48,9.91,10.37,21.92,10.5,24.95,9.79-3.9,20.73-1.33,27.62,6.2,4.28,4.68,6.87,12.32,5.39,24.6,1.94-.32,11.77-1.74,20.41,4.93,8.36,6.45,12.47,18.03,9.52,28.36-3.6,12.59-17.08,21.09-31.43,18.48,0,0-13.5,32.04-45.31,4.93,0,0-13.93,22.18-41.78-1.85,0,0-21.84,23.73-41.35-3.08-1.55,1.11-11.63,8.04-24.01,4.62-2.2-.61-11.58-3.21-16.21-12.63-4.19-8.53-2.47-18.56,2.4-25.57,7.88-11.34,21.29-10.83,22.21-10.78-.76-1.27-8.05-13.84-2.4-27.42,4.48-10.79,15.55-18.43,27.01-17.56,7.67,.58,13.07,4.79,15.3,6.78Z"/>
          <path class="cls-12" d="M495.54,345.69c1.6-.45,3.59-1.19,5.71-2.41,3.28-1.9,5.53-4.2,6.91-5.87,0,0,13.8,23.53,41.11,3.45,0,0,21.61,22.9,40.81,2.33,0,0,28.21,26.26,45.31-2.7,14.28,2.47,27.67-5.96,31.38-18.53,3.25-11.01-1.4-23.59-10.49-29.57-6.4-4.21-16.54-6.15-22.44-1.79-2.76,2.04-2.74,4.09-6.87,7.03-4.06,2.88-8.01,3.7-11.17,4.36-3.16,.66-8.28,1.33-14.63,.3,0,0-26.41,27.73-46.21,2.16,0,0-16.32,26.18-37.57,2,0,0-6.24,8.17-.24,18.03-3.01,1.32-7.08,3.53-11.18,7.19-5.65,5.04-8.79,10.54-10.44,14.03Z"/>
        </g>
        <path class="cls-21" d="M517.41,306.44c3.7-12.24,12.59-21.1,22.35-22.58,8.54-1.29,15.81,2.58,15.81,2.58,2.57,1.37,4.44,2.96,5.67,4.17,.75-4.28,3.19-14.78,11.98-23.73,2.95-3,13.5-13.74,28.89-12.31,17.81,1.65,26.6,18.17,27.51,19.95,3.42,6.68,4.06,12.99,4.16,16.64-.69,1.15-1.77,2.74-3.39,4.32-.73,.71-4.03,3.84-11.4,5.85-6.88,1.88-13.16,1.65-17.79,.96-8.07,10.97-20.65,16.09-31.62,13.01-8.02-2.26-12.75-8.21-14.59-10.85,0,0-14.91,26.62-37.57,2Z"/>
      </g>
    </g>
    <g>
      <polygon class="cls-25" points="498.57 611.26 517.76 611.26 511.8 425.6 504.79 425.6 498.57 611.26"/>
      <path class="cls-25" d="M511.28,478.71s25.67-1.4,30.34-47.99h3.89s.37,46.86-31.84,53.13"/>
      <path class="cls-25" d="M471.6,427h3.63s8.59,31,28.41,32.86v5.35s-26.6-.93-32.04-38.2Z"/>
      <g>
        <g>
          <path class="cls-16" d="M478.08,366.45c.64-3.18,2.85-11.66,11.15-18.64,2.83-2.37,10.62-8.93,22.3-8.62,11.16,.29,18.33,6.65,20.23,8.39,8.19,7.49,8.96,16.58,9.08,18.87,8.46-2.95,17.91-1.01,23.87,4.69,3.7,3.54,5.94,9.31,4.66,18.6,1.68-.24,10.17-1.31,17.63,3.73,7.22,4.88,10.78,13.64,8.23,21.44-3.11,9.52-14.76,15.95-27.16,13.97,0,0-11.67,24.22-39.16,3.72,0,0-12.04,16.77-36.1-1.4,0,0-18.87,17.94-35.73-2.33-1.34,.84-10.05,6.08-20.75,3.49-1.9-.46-10.01-2.42-14-9.55-3.62-6.45-2.14-14.04,2.07-19.33,6.81-8.57,18.4-8.19,19.19-8.15-.66-.96-6.95-10.46-2.07-20.73,3.88-8.16,13.44-13.94,23.34-13.28,6.63,.44,11.29,3.62,13.23,5.12Z"/>
          <path class="cls-15" d="M421.32,408.1c1.38-.34,3.1-.9,4.93-1.82,2.84-1.44,4.78-3.17,5.97-4.44,0,0,11.93,17.79,35.53,2.61,0,0,18.67,17.32,35.27,1.76,0,0,24.38,19.86,39.16-2.04,12.34,1.86,23.91-4.5,27.12-14.01,2.81-8.33-1.21-17.84-9.06-22.35-5.53-3.18-14.29-4.65-19.39-1.35-2.38,1.54-2.36,3.09-5.94,5.31-3.51,2.18-6.92,2.79-9.65,3.3-2.73,.5-7.16,1-12.64,.23,0,0-22.82,20.97-39.94,1.63,0,0-14.1,19.79-32.47,1.51,0,0-5.4,6.18-.21,13.63-2.6,1-6.11,2.67-9.66,5.43-4.88,3.81-7.6,7.97-9.02,10.61Z"/>
        </g>
        <path class="cls-24" d="M440.21,378.42c3.2-9.26,10.88-15.96,19.31-17.07,7.38-.98,13.66,1.95,13.66,1.95,2.22,1.03,3.84,2.24,4.9,3.15,.65-3.24,2.75-11.18,10.35-17.94,2.55-2.27,11.67-10.39,24.96-9.31,15.39,1.25,22.98,13.74,23.77,15.09,2.95,5.05,3.51,9.82,3.6,12.58-.59,.87-1.53,2.07-2.93,3.27-.63,.54-3.48,2.91-9.85,4.43-5.95,1.42-11.38,1.24-15.38,.73-6.98,8.29-17.85,12.17-27.33,9.83-6.93-1.71-11.02-6.21-12.61-8.2,0,0-12.88,20.13-32.47,1.51Z"/>
      </g>
    </g>
    <g>
      <polygon class="cls-25" points="358.22 619.22 387.74 619.22 378.56 283.25 367.79 283.25 358.22 619.22"/>
      <path class="cls-25" d="M377.77,379.36s39.49-2.53,46.67-86.84h5.98s.57,84.8-48.98,96.14"/>
      <path class="cls-25" d="M316.73,285.78h5.58s13.22,56.1,43.71,59.46v9.68s-40.92-1.69-49.29-69.13Z"/>
      <g>
        <g>
          <path class="cls-28" d="M326.71,176.21c.99-5.75,4.38-21.09,17.15-33.72,4.35-4.3,16.34-16.15,34.31-15.6,17.17,.53,28.2,12.04,31.11,15.18,12.6,13.56,13.78,30,13.96,34.14,13.01-5.33,27.55-1.82,36.72,8.49,5.69,6.41,9.13,16.85,7.16,33.66,2.58-.44,15.64-2.38,27.13,6.74,11.11,8.82,16.58,24.68,12.66,38.8-4.78,17.23-22.7,28.86-41.78,25.28,0,0-17.95,43.84-60.23,6.74,0,0-18.52,30.35-55.53-2.53,0,0-29.03,32.47-54.96-4.21-2.06,1.51-15.46,11.01-31.91,6.32-2.92-.83-15.39-4.39-21.54-17.28-5.57-11.67-3.28-25.4,3.19-34.99,10.48-15.51,28.31-14.82,29.52-14.75-1.01-1.73-10.7-18.93-3.19-37.52,5.96-14.76,20.68-25.22,35.9-24.03,10.19,.8,17.37,6.56,20.34,9.27Z"/>
          <path class="cls-22" d="M239.39,251.59c2.13-.62,4.77-1.62,7.59-3.3,4.37-2.6,7.35-5.74,9.19-8.03,0,0,18.35,32.2,54.65,4.72,0,0,28.72,31.33,54.25,3.19,0,0,37.5,35.93,60.23-3.69,18.99,3.37,36.78-8.15,41.71-25.36,4.32-15.07-1.86-32.28-13.94-40.45-8.5-5.75-21.99-8.41-29.82-2.45-3.67,2.79-3.64,5.59-9.14,9.62-5.39,3.94-10.64,5.06-14.85,5.96-4.2,.91-11.01,1.82-19.44,.41,0,0-35.1,37.94-61.43,2.95,0,0-21.7,35.81-49.94,2.73,0,0-8.3,11.18-.32,24.67-4,1.81-9.41,4.82-14.86,9.83-7.51,6.89-11.68,14.42-13.88,19.2Z"/>
        </g>
        <path class="cls-4" d="M268.44,197.88c4.92-16.75,16.73-28.88,29.71-30.9,11.35-1.77,21.01,3.53,21.01,3.53,3.41,1.87,5.91,4.05,7.54,5.7,1-5.86,4.24-20.23,15.92-32.47,3.92-4.1,17.95-18.8,38.4-16.85,23.67,2.26,35.35,24.85,36.57,27.3,4.54,9.14,5.4,17.78,5.53,22.77-.91,1.58-2.35,3.75-4.5,5.92-.97,.98-5.36,5.26-15.16,8.01-9.15,2.57-17.5,2.25-23.65,1.32-10.73,15.01-27.45,22.02-42.04,17.79-10.66-3.09-16.95-11.24-19.4-14.84,0,0-19.82,36.43-49.94,2.73Z"/>
      </g>
    </g>
    <g>
      <polygon class="cls-25" points="212.45 606.54 239.39 606.54 231.01 353.36 221.19 353.36 212.45 606.54"/>
      <path class="cls-25" d="M230.29,425.79s36.03-1.91,42.59-65.44h5.46s.52,63.9-44.69,72.45"/>
      <path class="cls-25" d="M174.6,355.27h5.1s12.06,42.28,39.88,44.81v7.29s-37.33-1.27-44.98-52.1Z"/>
      <g>
        <g>
          <path class="cls-23" d="M183.7,272.7c.9-4.34,3.99-15.9,15.65-25.41,3.97-3.24,14.91-12.17,31.3-11.75,15.66,.4,25.73,9.07,28.39,11.44,11.5,10.22,12.57,22.6,12.74,25.73,11.87-4.02,25.14-1.37,33.5,6.4,5.2,4.83,8.33,12.7,6.53,25.37,2.36-.33,14.27-1.79,24.75,5.08,10.13,6.65,15.13,18.59,11.55,29.24-4.36,12.98-20.71,21.75-38.12,19.05,0,0-16.38,33.03-54.96,5.08,0,0-16.9,22.87-50.67-1.91,0,0-26.49,24.47-50.15-3.17-1.88,1.14-14.11,8.29-29.12,4.76-2.67-.63-14.04-3.31-19.66-13.02-5.08-8.8-3-19.14,2.91-26.37,9.56-11.69,25.83-11.17,26.93-11.12-.92-1.31-9.76-14.27-2.91-28.27,5.44-11.12,18.87-19,32.76-18.11,9.3,.6,15.85,4.94,18.56,6.99Z"/>
          <path class="cls-26" d="M104.02,329.5c1.94-.47,4.35-1.22,6.92-2.49,3.98-1.96,6.7-4.33,8.38-6.05,0,0,16.74,24.26,49.87,3.55,0,0,26.21,23.61,49.5,2.41,0,0,34.21,27.08,54.96-2.78,17.33,2.54,33.56-6.14,38.06-19.11,3.94-11.36-1.7-24.33-12.72-30.48-7.76-4.34-20.06-6.34-27.21-1.85-3.35,2.1-3.32,4.22-8.34,7.25-4.92,2.97-9.71,3.81-13.55,4.49-3.83,.68-10.04,1.37-17.74,.31,0,0-32.03,28.59-56.05,2.22,0,0-19.8,26.99-45.57,2.06,0,0-7.57,8.42-.29,18.59-3.65,1.36-8.58,3.64-13.56,7.41-6.85,5.19-10.66,10.86-12.66,14.47Z"/>
        </g>
        <path class="cls-8" d="M130.53,289.03c4.49-12.62,15.26-21.76,27.11-23.28,10.36-1.33,19.17,2.66,19.17,2.66,3.11,1.41,5.39,3.06,6.88,4.3,.91-4.41,3.86-15.24,14.53-24.47,3.57-3.09,16.38-14.17,35.04-12.7,21.6,1.7,32.26,18.73,33.37,20.57,4.14,6.89,4.93,13.4,5.05,17.16-.83,1.19-2.14,2.82-4.11,4.46-.88,.74-4.89,3.96-13.83,6.04-8.35,1.93-15.97,1.7-21.58,.99-9.79,11.31-25.05,16.59-38.36,13.41-9.72-2.33-15.47-8.47-17.7-11.19,0,0-18.08,27.45-45.57,2.06Z"/>
      </g>
    </g>
    <g>
      <polygon class="cls-25" points="412.89 577.69 431.64 577.69 425.81 394.52 418.97 394.52 412.89 577.69"/>
      <path class="cls-25" d="M425.31,446.92s25.09-1.38,29.66-47.34h3.8s.36,46.23-31.12,52.42"/>
      <path class="cls-25" d="M386.53,395.9h3.55s8.4,30.59,27.77,32.42v5.28s-26-.92-31.32-37.69Z"/>
      <g>
        <g>
          <path class="cls-17" d="M392.86,336.16c.63-3.14,2.78-11.5,10.9-18.39,2.76-2.34,10.38-8.81,21.8-8.5,10.91,.29,17.92,6.57,19.77,8.27,8,7.39,8.76,16.35,8.87,18.62,8.27-2.91,17.51-.99,23.33,4.63,3.62,3.49,5.8,9.19,4.55,18.35,1.64-.24,9.94-1.3,17.24,3.68,7.06,4.81,10.53,13.45,8.04,21.15-3.04,9.39-14.42,15.73-26.54,13.78,0,0-11.41,23.9-38.27,3.67,0,0-11.77,16.55-35.29-1.38,0,0-18.45,17.7-34.92-2.3-1.31,.83-9.83,6-20.28,3.44-1.86-.45-9.78-2.39-13.69-9.42-3.54-6.36-2.09-13.85,2.03-19.08,6.66-8.46,17.99-8.08,18.76-8.04-.64-.94-6.8-10.32-2.03-20.45,3.79-8.05,13.14-13.75,22.81-13.1,6.48,.43,11.04,3.57,12.93,5.06Z"/>
          <path class="cls-12" d="M337.38,377.25c1.35-.34,3.03-.88,4.82-1.8,2.77-1.42,4.67-3.13,5.84-4.38,0,0,11.66,17.55,34.73,2.57,0,0,18.25,17.08,34.47,1.74,0,0,23.83,19.59,38.27-2.01,12.07,1.84,23.37-4.44,26.51-13.83,2.74-8.22-1.18-17.6-8.86-22.05-5.4-3.14-13.97-4.59-18.95-1.34-2.33,1.52-2.31,3.05-5.81,5.24-3.43,2.15-6.76,2.76-9.43,3.25-2.67,.49-6.99,.99-12.35,.22,0,0-22.31,20.68-39.03,1.61,0,0-13.79,19.53-31.73,1.49,0,0-5.27,6.09-.2,13.45-2.54,.99-5.98,2.63-9.44,5.36-4.77,3.76-7.42,7.86-8.82,10.47Z"/>
        </g>
        <path class="cls-21" d="M355.84,347.97c3.13-9.13,10.63-15.74,18.88-16.85,7.21-.96,13.35,1.92,13.35,1.92,2.17,1.02,3.75,2.21,4.79,3.11,.64-3.19,2.69-11.03,10.12-17.7,2.49-2.24,11.41-10.25,24.4-9.19,15.04,1.23,22.46,13.55,23.23,14.88,2.89,4.98,3.43,9.69,3.51,12.41-.58,.86-1.49,2.04-2.86,3.23-.62,.53-3.41,2.87-9.63,4.37-5.81,1.4-11.12,1.23-15.03,.72-6.82,8.18-17.44,12.01-26.71,9.7-6.77-1.68-10.77-6.13-12.32-8.09,0,0-12.59,19.86-31.73,1.49Z"/>
      </g>
    </g>
    <g>
      <polygon class="cls-25" points="1454.81 566.78 1481.74 566.78 1473.37 313.6 1463.54 313.6 1454.81 566.78"/>
      <path class="cls-25" d="M1472.64,386.03s36.03-1.91,42.59-65.44h5.46s.52,63.9-44.69,72.45"/>
      <path class="cls-25" d="M1416.95,315.5h5.1s12.06,42.28,39.88,44.81v7.29s-37.33-1.27-44.98-52.1Z"/>
      <g>
        <g>
          <path class="cls-23" d="M1426.05,232.93c.9-4.34,3.99-15.9,15.65-25.41,3.97-3.24,14.91-12.17,31.3-11.75,15.66,.4,25.73,9.07,28.39,11.44,11.5,10.22,12.57,22.6,12.74,25.73,11.87-4.02,25.14-1.37,33.5,6.4,5.2,4.83,8.33,12.7,6.53,25.37,2.36-.33,14.27-1.79,24.75,5.08,10.13,6.65,15.13,18.59,11.55,29.24-4.36,12.98-20.71,21.75-38.12,19.05,0,0-16.38,33.03-54.96,5.08,0,0-16.9,22.87-50.67-1.91,0,0-26.49,24.47-50.15-3.17-1.88,1.14-14.11,8.29-29.12,4.76-2.67-.63-14.04-3.31-19.66-13.02-5.08-8.8-3-19.14,2.91-26.37,9.56-11.69,25.83-11.17,26.93-11.12-.92-1.31-9.76-14.27-2.91-28.27,5.44-11.12,18.87-19,32.76-18.11,9.3,.6,15.85,4.94,18.56,6.99Z"/>
          <path class="cls-26" d="M1346.37,289.74c1.94-.47,4.35-1.22,6.92-2.49,3.98-1.96,6.7-4.33,8.38-6.05,0,0,16.74,24.26,49.87,3.55,0,0,26.21,23.61,49.5,2.41,0,0,34.21,27.08,54.96-2.78,17.33,2.54,33.56-6.14,38.06-19.11,3.94-11.36-1.7-24.33-12.72-30.48-7.76-4.34-20.06-6.34-27.21-1.85-3.35,2.1-3.32,4.22-8.34,7.25-4.92,2.97-9.71,3.81-13.55,4.49-3.83,.68-10.04,1.37-17.74,.31,0,0-32.03,28.59-56.05,2.22,0,0-19.8,26.99-45.57,2.06,0,0-7.57,8.42-.29,18.59-3.65,1.36-8.58,3.64-13.56,7.41-6.85,5.19-10.66,10.86-12.66,14.47Z"/>
        </g>
        <path class="cls-8" d="M1372.89,249.26c4.49-12.62,15.26-21.76,27.11-23.28,10.36-1.33,19.17,2.66,19.17,2.66,3.11,1.41,5.39,3.06,6.88,4.3,.91-4.41,3.86-15.24,14.53-24.47,3.57-3.09,16.38-14.17,35.04-12.7,21.6,1.7,32.26,18.73,33.37,20.57,4.14,6.89,4.93,13.4,5.05,17.16-.83,1.19-2.14,2.82-4.11,4.46-.88,.74-4.89,3.96-13.83,6.04-8.35,1.93-15.97,1.7-21.58,.99-9.79,11.31-25.05,16.59-38.36,13.41-9.72-2.33-15.47-8.47-17.7-11.19,0,0-18.08,27.45-45.57,2.06Z"/>
      </g>
    </g>
    <g>
      <polygon class="cls-25" points="1556.12 603.28 1577.94 603.28 1571.15 381.66 1563.19 381.66 1556.12 603.28"/>
      <path class="cls-25" d="M1570.56,445.06s29.19-1.67,34.5-57.28h4.42s.42,55.94-36.2,63.42"/>
      <path class="cls-25" d="M1525.45,383.33h4.13s9.77,37.01,32.31,39.22v6.38s-30.25-1.11-36.44-45.6Z"/>
      <g>
        <g>
          <path class="cls-28" d="M1532.82,311.05c.73-3.8,3.24-13.91,12.68-22.25,3.21-2.83,12.08-10.66,25.36-10.29,12.69,.35,20.85,7.94,23,10.01,9.31,8.94,10.19,19.79,10.32,22.52,9.62-3.52,20.37-1.2,27.14,5.6,4.21,4.23,6.75,11.12,5.29,22.21,1.91-.29,11.56-1.57,20.05,4.45,8.21,5.82,12.25,16.28,9.36,25.59-3.54,11.36-16.78,19.04-30.88,16.68,0,0-13.27,28.92-44.53,4.45,0,0-13.69,20.02-41.05-1.67,0,0-21.46,21.42-40.63-2.78-1.53,1-11.43,7.26-23.59,4.17-2.16-.55-11.38-2.89-15.92-11.4-4.11-7.7-2.43-16.75,2.36-23.08,7.74-10.23,20.92-9.78,21.82-9.73-.75-1.14-7.91-12.49-2.36-24.75,4.41-9.74,15.28-16.63,26.54-15.85,7.53,.53,12.84,4.33,15.04,6.12Z"/>
          <path class="cls-22" d="M1468.27,360.77c1.57-.41,3.53-1.07,5.61-2.18,3.23-1.71,5.43-3.79,6.79-5.3,0,0,13.56,21.24,40.4,3.11,0,0,21.23,20.67,40.1,2.11,0,0,27.72,23.7,44.53-2.44,14.04,2.23,27.19-5.38,30.83-16.73,3.19-9.94-1.38-21.29-10.3-26.68-6.29-3.8-16.25-5.55-22.05-1.62-2.71,1.84-2.69,3.69-6.75,6.34-3.99,2.6-7.87,3.33-10.97,3.93-3.1,.6-8.14,1.2-14.37,.27,0,0-25.95,25.03-45.41,1.95,0,0-16.04,23.62-36.92,1.8,0,0-6.13,7.37-.24,16.27-2.95,1.19-6.95,3.18-10.99,6.49-5.55,4.55-8.64,9.51-10.26,12.67Z"/>
        </g>
        <path class="cls-4" d="M1489.75,325.35c3.64-11.05,12.37-19.05,21.96-20.38,8.39-1.17,15.53,2.33,15.53,2.33,2.52,1.23,4.37,2.67,5.57,3.76,.74-3.86,3.13-13.34,11.77-21.42,2.89-2.71,13.27-12.4,28.38-11.11,17.5,1.49,26.13,16.4,27.03,18.01,3.36,6.03,3.99,11.73,4.09,15.02-.67,1.04-1.74,2.47-3.33,3.9-.72,.65-3.96,3.47-11.21,5.28-6.76,1.69-12.94,1.49-17.48,.87-7.93,9.9-20.29,14.53-31.07,11.74-7.88-2.04-12.53-7.41-14.34-9.79,0,0-14.65,24.03-36.92,1.8Z"/>
      </g>
    </g>
    <g>
      <polygon class="cls-25" points="1693.35 602 1733.51 602 1721.03 307.75 1706.38 307.75 1693.35 602"/>
      <path class="cls-25" d="M1719.94,391.93s53.72-2.22,63.49-76.06h8.14s.78,74.27-66.63,84.21"/>
      <path class="cls-25" d="M1636.92,309.97h7.6s17.98,49.14,59.46,52.07v8.47s-55.66-1.48-67.05-60.55Z"/>
      <g>
        <g>
          <path class="cls-3" d="M1650.49,214c1.34-5.04,5.95-18.48,23.33-29.54,5.91-3.76,22.23-14.15,46.67-13.66,23.35,.47,38.36,10.55,42.33,13.29,17.14,11.87,18.74,26.27,18.99,29.91,17.7-4.67,37.48-1.6,49.95,7.44,7.75,5.61,12.43,14.76,9.74,29.48,3.51-.39,21.27-2.08,36.9,5.91,15.11,7.73,22.55,21.61,17.22,33.98-6.51,15.09-30.88,25.27-56.83,22.14,0,0-24.42,38.39-81.94,5.9,0,0-25.19,26.58-75.54-2.22,0,0-39.5,28.44-74.77-3.69-2.81,1.33-21.04,9.64-43.41,5.53-3.98-.73-20.94-3.84-29.3-15.14-7.57-10.22-4.47-22.25,4.34-30.64,14.25-13.59,38.5-12.98,40.15-12.92-1.38-1.52-14.55-16.58-4.34-32.86,8.11-12.93,28.13-22.09,48.84-21.04,13.86,.7,23.62,5.74,27.67,8.12Z"/>
          <path class="cls-5" d="M1531.7,280.02c2.9-.54,6.49-1.42,10.32-2.89,5.94-2.28,9.99-5.03,12.5-7.03,0,0,24.96,28.2,74.34,4.13,0,0,39.07,27.44,73.8,2.8,0,0,51.01,31.47,81.94-3.23,25.83,2.95,50.03-7.14,56.74-22.21,5.87-13.2-2.53-28.27-18.96-35.43-11.57-5.04-29.91-7.37-40.57-2.15-4.99,2.44-4.95,4.9-12.43,8.42-7.33,3.45-14.48,4.43-20.2,5.22-5.71,.79-14.97,1.59-26.45,.36,0,0-47.75,33.23-83.56,2.58,0,0-29.51,31.37-67.93,2.39,0,0-11.29,9.79-.44,21.61-5.44,1.58-12.79,4.23-20.22,8.61-10.21,6.04-15.89,12.63-18.88,16.82Z"/>
        </g>
        <path class="cls-20" d="M1571.23,232.98c6.69-14.67,22.76-25.29,40.41-27.06,15.44-1.55,28.59,3.09,28.59,3.09,4.64,1.64,8.04,3.55,10.26,4.99,1.36-5.13,5.76-17.72,21.66-28.44,5.33-3.59,24.42-16.46,52.23-14.76,32.2,1.98,48.09,21.77,49.74,23.91,6.18,8.01,7.34,15.57,7.52,19.94-1.24,1.38-3.2,3.28-6.12,5.18-1.32,.86-7.29,4.61-20.62,7.01-12.44,2.25-23.8,1.97-32.17,1.15-14.6,13.15-37.34,19.29-57.18,15.59-14.49-2.7-23.06-9.84-26.38-13,0,0-26.96,31.9-67.93,2.39Z"/>
      </g>
    </g>
    <g>
      <polygon class="cls-25" points="1637.4 604.25 1654.65 604.25 1649.29 443.06 1642.99 443.06 1637.4 604.25"/>
      <path class="cls-25" d="M1648.82,489.17s23.08-1.21,27.27-41.66h3.5s.33,40.68-28.62,46.13"/>
      <path class="cls-25" d="M1613.16,444.27h3.26s7.73,26.92,25.54,28.53v4.64s-23.91-.81-28.81-33.17Z"/>
      <g>
        <g>
          <path class="cls-17" d="M1618.98,391.7c.58-2.76,2.56-10.12,10.02-16.18,2.54-2.06,9.55-7.75,20.05-7.48,10.03,.26,16.48,5.78,18.18,7.28,7.36,6.5,8.05,14.39,8.16,16.38,7.6-2.56,16.1-.88,21.46,4.07,3.33,3.08,5.34,8.09,4.18,16.15,1.51-.21,9.14-1.14,15.85,3.24,6.49,4.23,9.69,11.84,7.4,18.61-2.79,8.26-13.26,13.85-24.41,12.13,0,0-10.49,21.03-35.2,3.23,0,0-10.82,14.56-32.45-1.21,0,0-16.97,15.58-32.12-2.02-1.21,.73-9.04,5.28-18.65,3.03-1.71-.4-8.99-2.11-12.59-8.29-3.25-5.6-1.92-12.19,1.86-16.79,6.12-7.44,16.54-7.11,17.25-7.08-.59-.83-6.25-9.08-1.86-18,3.48-7.08,12.08-12.1,20.98-11.53,5.96,.38,10.15,3.15,11.89,4.45Z"/>
          <path class="cls-12" d="M1567.96,427.87c1.24-.3,2.79-.78,4.43-1.58,2.55-1.25,4.29-2.75,5.37-3.85,0,0,10.72,15.45,31.94,2.26,0,0,16.78,15.03,31.7,1.53,0,0,21.91,17.24,35.2-1.77,11.1,1.62,21.49-3.91,24.38-12.17,2.52-7.23-1.09-15.49-8.15-19.41-4.97-2.76-12.85-4.04-17.43-1.18-2.14,1.34-2.13,2.68-5.34,4.61-3.15,1.89-6.22,2.43-8.68,2.86-2.45,.44-6.43,.87-11.36,.2,0,0-20.51,18.2-35.9,1.42,0,0-12.68,17.18-29.18,1.31,0,0-4.85,5.36-.19,11.84-2.34,.87-5.5,2.31-8.69,4.72-4.39,3.31-6.83,6.92-8.11,9.21Z"/>
        </g>
        <path class="cls-21" d="M1584.94,402.1c2.87-8.04,9.78-13.85,17.36-14.82,6.63-.85,12.28,1.69,12.28,1.69,1.99,.9,3.45,1.95,4.41,2.73,.58-2.81,2.48-9.71,9.31-15.58,2.29-1.97,10.49-9.02,22.44-8.08,13.83,1.08,20.66,11.92,21.37,13.1,2.65,4.39,3.15,8.53,3.23,10.92-.53,.76-1.37,1.8-2.63,2.84-.57,.47-3.13,2.52-8.86,3.84-5.35,1.23-10.23,1.08-13.82,.63-6.27,7.2-16.04,10.56-24.56,8.54-6.23-1.48-9.91-5.39-11.33-7.12,0,0-11.58,17.48-29.18,1.31Z"/>
      </g>
    </g>
  </g>
</svg>